<?xml version="1.0" encoding="UTF-8"?>
<svg xmlns="http://www.w3.org/2000/svg" xmlns:xlink="http://www.w3.org/1999/xlink" width="960.009449pt" height="540pt" viewBox="0 0 960.009449 540">
<defs>
<g>
<g id="glyph-0-0">
<path d="M 1.9375 0 L 1.9375 -0.453125 L 3.265625 -0.625 L 3.265625 -7.71875 L 2.953125 -7.71875 C 1.992188 -7.71875 1.320312 -7.675781 0.9375 -7.59375 L 0.765625 -6.03125 L 0.203125 -6.03125 L 0.203125 -8.375 L 8.34375 -8.375 L 8.34375 -6.03125 L 7.765625 -6.03125 L 7.59375 -7.59375 C 7.25 -7.664062 6.566406 -7.703125 5.546875 -7.703125 L 5.25 -7.703125 L 5.25 -0.625 L 6.578125 -0.453125 L 6.578125 0 Z M 1.9375 0 "/>
</g>
<g id="glyph-0-1">
<path d="M 2.71875 -0.5625 L 3.375 -0.40625 L 3.375 0 L 0.28125 0 L 0.28125 -0.40625 L 0.921875 -0.5625 L 0.921875 -5.3125 L 0.3125 -5.46875 L 0.3125 -5.875 L 2.71875 -5.875 Z M 0.859375 -7.921875 C 0.859375 -8.191406 0.953125 -8.414062 1.140625 -8.59375 C 1.328125 -8.78125 1.550781 -8.875 1.8125 -8.875 C 2.082031 -8.875 2.3125 -8.78125 2.5 -8.59375 C 2.6875 -8.414062 2.78125 -8.191406 2.78125 -7.921875 C 2.78125 -7.660156 2.6875 -7.429688 2.5 -7.234375 C 2.3125 -7.046875 2.082031 -6.953125 1.8125 -6.953125 C 1.550781 -6.953125 1.328125 -7.046875 1.140625 -7.234375 C 0.953125 -7.421875 0.859375 -7.648438 0.859375 -7.921875 Z M 0.859375 -7.921875 "/>
</g>
<g id="glyph-0-2">
<path d="M 2.71875 -5.359375 L 3.140625 -5.578125 C 3.722656 -5.878906 4.242188 -6.03125 4.703125 -6.03125 C 5.398438 -6.03125 5.867188 -5.773438 6.109375 -5.265625 C 6.960938 -5.773438 7.679688 -6.03125 8.265625 -6.03125 C 9.328125 -6.03125 9.859375 -5.453125 9.859375 -4.296875 L 9.859375 -0.5625 L 10.4375 -0.40625 L 10.4375 0 L 7.515625 0 L 7.515625 -0.40625 L 8.046875 -0.5625 L 8.046875 -4.0625 C 8.046875 -4.40625 7.976562 -4.675781 7.84375 -4.875 C 7.707031 -5.070312 7.503906 -5.171875 7.234375 -5.171875 C 6.921875 -5.171875 6.585938 -5.082031 6.234375 -4.90625 C 6.273438 -4.726562 6.296875 -4.523438 6.296875 -4.296875 L 6.296875 -0.5625 L 6.875 -0.40625 L 6.875 0 L 3.96875 0 L 3.96875 -0.40625 L 4.484375 -0.5625 L 4.484375 -4.0625 C 4.484375 -4.40625 4.414062 -4.675781 4.28125 -4.875 C 4.144531 -5.070312 3.941406 -5.171875 3.671875 -5.171875 C 3.390625 -5.171875 3.070312 -5.085938 2.71875 -4.921875 L 2.71875 -0.5625 L 3.265625 -0.40625 L 3.265625 0 L 0.34375 0 L 0.34375 -0.40625 L 0.921875 -0.5625 L 0.921875 -5.3125 L 0.34375 -5.46875 L 0.34375 -5.875 L 2.625 -5.875 Z M 2.71875 -5.359375 "/>
</g>
<g id="glyph-0-3">
<path d="M 3.09375 -6.015625 C 3.882812 -6.015625 4.457031 -5.800781 4.8125 -5.375 C 5.164062 -4.957031 5.34375 -4.300781 5.34375 -3.40625 L 5.34375 -2.890625 L 2.265625 -2.890625 L 2.265625 -2.78125 C 2.265625 -2.164062 2.3125 -1.722656 2.40625 -1.453125 C 2.507812 -1.191406 2.675781 -0.992188 2.90625 -0.859375 C 3.132812 -0.722656 3.441406 -0.65625 3.828125 -0.65625 C 4.191406 -0.65625 4.65625 -0.71875 5.21875 -0.84375 L 5.21875 -0.359375 C 4.988281 -0.222656 4.691406 -0.109375 4.328125 -0.015625 C 3.960938 0.078125 3.609375 0.125 3.265625 0.125 C 2.296875 0.125 1.582031 -0.125 1.125 -0.625 C 0.664062 -1.132812 0.4375 -1.914062 0.4375 -2.96875 C 0.4375 -3.988281 0.65625 -4.75 1.09375 -5.25 C 1.53125 -5.757812 2.195312 -6.015625 3.09375 -6.015625 Z M 3.015625 -5.390625 C 2.765625 -5.390625 2.578125 -5.253906 2.453125 -4.984375 C 2.335938 -4.710938 2.28125 -4.234375 2.28125 -3.546875 L 3.640625 -3.546875 C 3.640625 -4.097656 3.617188 -4.488281 3.578125 -4.71875 C 3.546875 -4.945312 3.484375 -5.113281 3.390625 -5.21875 C 3.296875 -5.332031 3.171875 -5.390625 3.015625 -5.390625 Z M 3.015625 -5.390625 "/>
</g>
<g id="glyph-0-4">
<path d="M 0.46875 -2.46875 L 0.46875 -3.5625 L 3.796875 -3.5625 L 3.796875 -2.46875 Z M 0.46875 -2.46875 "/>
</g>
<g id="glyph-0-5">
<path d="M 4.671875 -1.859375 C 4.671875 -1.203125 4.46875 -0.707031 4.0625 -0.375 C 3.664062 -0.0390625 3.082031 0.125 2.3125 0.125 C 2 0.125 1.648438 0.0859375 1.265625 0.015625 C 0.878906 -0.046875 0.59375 -0.113281 0.40625 -0.1875 L 0.40625 -1.796875 L 0.8125 -1.796875 L 1.046875 -0.96875 C 1.191406 -0.820312 1.382812 -0.695312 1.625 -0.59375 C 1.863281 -0.5 2.101562 -0.453125 2.34375 -0.453125 C 2.707031 -0.453125 2.976562 -0.53125 3.15625 -0.6875 C 3.332031 -0.84375 3.421875 -1.039062 3.421875 -1.28125 C 3.421875 -1.507812 3.332031 -1.691406 3.15625 -1.828125 C 2.988281 -1.972656 2.617188 -2.132812 2.046875 -2.3125 C 1.441406 -2.5 1.015625 -2.753906 0.765625 -3.078125 C 0.515625 -3.398438 0.390625 -3.800781 0.390625 -4.28125 C 0.390625 -4.8125 0.585938 -5.234375 0.984375 -5.546875 C 1.378906 -5.867188 1.890625 -6.03125 2.515625 -6.03125 C 2.941406 -6.03125 3.519531 -5.96875 4.25 -5.84375 L 4.25 -4.34375 L 3.828125 -4.34375 L 3.625 -5.03125 C 3.507812 -5.15625 3.34375 -5.253906 3.125 -5.328125 C 2.90625 -5.398438 2.695312 -5.4375 2.5 -5.4375 C 2.195312 -5.4375 1.972656 -5.375 1.828125 -5.25 C 1.691406 -5.132812 1.625 -4.96875 1.625 -4.75 C 1.625 -4.53125 1.710938 -4.347656 1.890625 -4.203125 C 2.066406 -4.066406 2.4375 -3.914062 3 -3.75 C 3.601562 -3.5625 4.03125 -3.3125 4.28125 -3 C 4.539062 -2.695312 4.671875 -2.316406 4.671875 -1.859375 Z M 4.671875 -1.859375 "/>
</g>
<g id="glyph-0-6">
<path d="M 2.875 -4.65625 C 3.332031 -5.15625 3.738281 -5.515625 4.09375 -5.734375 C 4.445312 -5.953125 4.769531 -6.0625 5.0625 -6.0625 L 5.40625 -6.0625 L 5.40625 -3.921875 L 5.0625 -3.921875 L 4.6875 -4.703125 C 4.425781 -4.703125 4.128906 -4.644531 3.796875 -4.53125 C 3.460938 -4.414062 3.164062 -4.28125 2.90625 -4.125 L 2.90625 -0.5625 L 3.859375 -0.40625 L 3.859375 0 L 0.34375 0 L 0.34375 -0.40625 L 1.109375 -0.5625 L 1.109375 -5.3125 L 0.34375 -5.46875 L 0.34375 -5.875 L 2.8125 -5.875 Z M 2.875 -4.65625 "/>
</g>
<g id="glyph-0-7">
</g>
<g id="glyph-0-8">
<path d="M 4.578125 -0.328125 C 4.347656 -0.179688 4.171875 -0.0820312 4.046875 -0.03125 C 3.921875 0.0078125 3.773438 0.046875 3.609375 0.078125 C 3.453125 0.109375 3.28125 0.125 3.09375 0.125 C 2.226562 0.125 1.582031 -0.125 1.15625 -0.625 C 0.726562 -1.125 0.515625 -1.890625 0.515625 -2.921875 C 0.515625 -3.929688 0.742188 -4.703125 1.203125 -5.234375 C 1.660156 -5.765625 2.320312 -6.03125 3.1875 -6.03125 C 3.644531 -6.03125 4.101562 -5.972656 4.5625 -5.859375 C 4.539062 -5.992188 4.53125 -6.316406 4.53125 -6.828125 L 4.53125 -8.3125 L 3.921875 -8.46875 L 3.921875 -8.875 L 6.328125 -8.875 L 6.328125 -0.5625 L 6.96875 -0.40625 L 6.96875 0 L 4.71875 0 Z M 2.34375 -2.96875 C 2.34375 -2.1875 2.441406 -1.585938 2.640625 -1.171875 C 2.835938 -0.765625 3.117188 -0.5625 3.484375 -0.5625 C 3.816406 -0.5625 4.164062 -0.65625 4.53125 -0.84375 L 4.53125 -5.265625 C 4.195312 -5.347656 3.863281 -5.390625 3.53125 -5.390625 C 3.15625 -5.390625 2.863281 -5.179688 2.65625 -4.765625 C 2.445312 -4.359375 2.34375 -3.757812 2.34375 -2.96875 Z M 2.34375 -2.96875 "/>
</g>
<g id="glyph-0-9">
<path d="M 3.40625 -6 C 4.882812 -6 5.625 -5.457031 5.625 -4.375 L 5.625 -0.5625 L 6.203125 -0.40625 L 6.203125 0 L 4.046875 0 L 3.90625 -0.453125 C 3.582031 -0.234375 3.285156 -0.0820312 3.015625 0 C 2.753906 0.0820312 2.492188 0.125 2.234375 0.125 C 1.015625 0.125 0.40625 -0.457031 0.40625 -1.625 C 0.40625 -2.0625 0.492188 -2.410156 0.671875 -2.671875 C 0.859375 -2.941406 1.117188 -3.140625 1.453125 -3.265625 C 1.796875 -3.398438 2.328125 -3.472656 3.046875 -3.484375 L 3.8125 -3.5 L 3.8125 -4.359375 C 3.8125 -5.066406 3.519531 -5.421875 2.9375 -5.421875 C 2.59375 -5.421875 2.203125 -5.3125 1.765625 -5.09375 L 1.53125 -4.375 L 1.125 -4.375 L 1.125 -5.78125 C 1.75 -5.882812 2.207031 -5.945312 2.5 -5.96875 C 2.800781 -5.988281 3.101562 -6 3.40625 -6 Z M 3.8125 -2.953125 L 3.28125 -2.9375 C 2.882812 -2.914062 2.609375 -2.804688 2.453125 -2.609375 C 2.296875 -2.410156 2.21875 -2.09375 2.21875 -1.65625 C 2.21875 -1.300781 2.28125 -1.039062 2.40625 -0.875 C 2.53125 -0.707031 2.691406 -0.625 2.890625 -0.625 C 3.171875 -0.625 3.476562 -0.695312 3.8125 -0.84375 Z M 3.8125 -2.953125 "/>
</g>
<g id="glyph-0-10">
<path d="M 2.734375 0.125 C 2.171875 0.125 1.734375 0 1.421875 -0.25 C 1.117188 -0.507812 0.96875 -0.878906 0.96875 -1.359375 L 0.96875 -5.21875 L 0.203125 -5.21875 L 0.203125 -5.625 L 1.109375 -5.875 L 1.84375 -7.203125 L 2.78125 -7.203125 L 2.78125 -5.875 L 4.015625 -5.875 L 4.015625 -5.21875 L 2.78125 -5.21875 L 2.78125 -1.46875 C 2.78125 -1.195312 2.835938 -0.992188 2.953125 -0.859375 C 3.066406 -0.722656 3.210938 -0.65625 3.390625 -0.65625 C 3.609375 -0.65625 3.878906 -0.6875 4.203125 -0.75 L 4.203125 -0.21875 C 4.078125 -0.132812 3.863281 -0.0546875 3.5625 0.015625 C 3.257812 0.0859375 2.984375 0.125 2.734375 0.125 Z M 2.734375 0.125 "/>
</g>
<g id="glyph-0-11">
<path d="M 0.21875 -0.453125 L 1.296875 -0.625 L 1.296875 -7.765625 L 0.21875 -7.921875 L 0.21875 -8.375 L 7.359375 -8.375 L 7.359375 -6.25 L 6.78125 -6.25 L 6.578125 -7.609375 C 6.117188 -7.660156 5.445312 -7.6875 4.5625 -7.6875 L 3.265625 -7.6875 L 3.265625 -4.625 L 5.453125 -4.625 L 5.65625 -5.546875 L 6.203125 -5.546875 L 6.203125 -2.96875 L 5.65625 -2.96875 L 5.453125 -3.921875 L 3.265625 -3.921875 L 3.265625 -0.6875 L 4.84375 -0.6875 C 5.914062 -0.6875 6.617188 -0.71875 6.953125 -0.78125 L 7.3125 -2.34375 L 7.875 -2.34375 L 7.765625 0 L 0.21875 0 Z M 0.21875 -0.453125 "/>
</g>
<g id="glyph-0-12">
<path d="M 3.625 0.125 L 2.875 0.125 L 0.40625 -5.3125 L 0 -5.46875 L 0 -5.875 L 3 -5.875 L 3 -5.46875 L 2.3125 -5.296875 L 3.8125 -1.953125 L 5.171875 -5.3125 L 4.484375 -5.46875 L 4.484375 -5.875 L 6.40625 -5.875 L 6.40625 -5.46875 L 5.96875 -5.34375 Z M 3.625 0.125 "/>
</g>
<g id="glyph-0-13">
<path d="M 2.71875 -5.359375 L 3.140625 -5.578125 C 3.722656 -5.878906 4.25 -6.03125 4.71875 -6.03125 C 5.800781 -6.03125 6.34375 -5.453125 6.34375 -4.296875 L 6.34375 -0.5625 L 6.921875 -0.40625 L 6.921875 0 L 4 0 L 4 -0.40625 L 4.53125 -0.5625 L 4.53125 -4.0625 C 4.53125 -4.40625 4.457031 -4.675781 4.3125 -4.875 C 4.164062 -5.070312 3.953125 -5.171875 3.671875 -5.171875 C 3.359375 -5.171875 3.039062 -5.097656 2.71875 -4.953125 L 2.71875 -0.5625 L 3.265625 -0.40625 L 3.265625 0 L 0.34375 0 L 0.34375 -0.40625 L 0.921875 -0.5625 L 0.921875 -5.3125 L 0.34375 -5.46875 L 0.34375 -5.875 L 2.625 -5.875 Z M 2.71875 -5.359375 "/>
</g>
<g id="glyph-0-14">
<path d="M 5.359375 -0.359375 C 5.171875 -0.203125 4.910156 -0.0820312 4.578125 0 C 4.253906 0.0820312 3.914062 0.125 3.5625 0.125 C 2.519531 0.125 1.738281 -0.125 1.21875 -0.625 C 0.695312 -1.132812 0.4375 -1.910156 0.4375 -2.953125 C 0.4375 -3.597656 0.550781 -4.148438 0.78125 -4.609375 C 1.019531 -5.066406 1.359375 -5.414062 1.796875 -5.65625 C 2.234375 -5.90625 2.742188 -6.03125 3.328125 -6.03125 C 3.910156 -6.03125 4.546875 -5.957031 5.234375 -5.8125 L 5.234375 -4.078125 L 4.78125 -4.078125 L 4.515625 -5.109375 C 4.378906 -5.210938 4.238281 -5.285156 4.09375 -5.328125 C 3.957031 -5.367188 3.78125 -5.390625 3.5625 -5.390625 C 3.3125 -5.390625 3.085938 -5.289062 2.890625 -5.09375 C 2.691406 -4.894531 2.535156 -4.617188 2.421875 -4.265625 C 2.304688 -3.910156 2.25 -3.484375 2.25 -2.984375 C 2.25 -2.148438 2.378906 -1.550781 2.640625 -1.1875 C 2.898438 -0.832031 3.316406 -0.65625 3.890625 -0.65625 C 4.460938 -0.65625 4.953125 -0.71875 5.359375 -0.84375 Z M 5.359375 -0.359375 "/>
</g>
<g id="glyph-0-15">
<path d="M 2.6875 -0.5625 L 3.34375 -0.40625 L 3.34375 0 L 0.25 0 L 0.25 -0.40625 L 0.890625 -0.5625 L 0.890625 -8.3125 L 0.28125 -8.46875 L 0.28125 -8.875 L 2.6875 -8.875 Z M 2.6875 -0.5625 "/>
</g>
<g id="glyph-0-16">
<path d="M 5.90625 -2.96875 C 5.90625 -1.914062 5.679688 -1.132812 5.234375 -0.625 C 4.785156 -0.125 4.09375 0.125 3.15625 0.125 C 2.257812 0.125 1.585938 -0.128906 1.140625 -0.640625 C 0.703125 -1.148438 0.484375 -1.925781 0.484375 -2.96875 C 0.484375 -4.007812 0.707031 -4.78125 1.15625 -5.28125 C 1.601562 -5.78125 2.289062 -6.03125 3.21875 -6.03125 C 4.144531 -6.03125 4.820312 -5.769531 5.25 -5.25 C 5.6875 -4.726562 5.90625 -3.96875 5.90625 -2.96875 Z M 4.078125 -2.96875 C 4.078125 -3.882812 4.007812 -4.519531 3.875 -4.875 C 3.738281 -5.226562 3.503906 -5.40625 3.171875 -5.40625 C 2.847656 -5.40625 2.625 -5.234375 2.5 -4.890625 C 2.375 -4.554688 2.3125 -3.914062 2.3125 -2.96875 C 2.3125 -2.007812 2.375 -1.359375 2.5 -1.015625 C 2.632812 -0.671875 2.859375 -0.5 3.171875 -0.5 C 3.503906 -0.5 3.738281 -0.675781 3.875 -1.03125 C 4.007812 -1.394531 4.078125 -2.039062 4.078125 -2.96875 Z M 4.078125 -2.96875 "/>
</g>
<g id="glyph-0-17">
<path d="M 1.609375 -2.171875 C 0.867188 -2.484375 0.5 -3.09375 0.5 -4 C 0.5 -4.644531 0.722656 -5.144531 1.171875 -5.5 C 1.628906 -5.851562 2.28125 -6.03125 3.125 -6.03125 C 3.300781 -6.03125 3.53125 -6.015625 3.8125 -5.984375 C 4.09375 -5.953125 4.300781 -5.914062 4.4375 -5.875 L 5.84375 -6.5625 L 6.0625 -6.296875 L 5.34375 -5.28125 C 5.601562 -4.96875 5.734375 -4.539062 5.734375 -4 C 5.734375 -3.332031 5.507812 -2.820312 5.0625 -2.46875 C 4.613281 -2.113281 3.957031 -1.9375 3.09375 -1.9375 C 2.769531 -1.9375 2.453125 -1.960938 2.140625 -2.015625 L 2 -1.53125 C 2 -1.414062 2.070312 -1.300781 2.21875 -1.1875 C 2.363281 -1.082031 2.546875 -1.03125 2.765625 -1.03125 L 4.125 -1.03125 C 5.5625 -1.03125 6.28125 -0.480469 6.28125 0.609375 C 6.28125 1.066406 6.15625 1.457031 5.90625 1.78125 C 5.65625 2.113281 5.289062 2.367188 4.8125 2.546875 C 4.332031 2.734375 3.734375 2.828125 3.015625 2.828125 C 2.160156 2.828125 1.5 2.703125 1.03125 2.453125 C 0.570312 2.210938 0.34375 1.878906 0.34375 1.453125 C 0.34375 1.265625 0.414062 1.082031 0.5625 0.90625 C 0.71875 0.738281 1.015625 0.523438 1.453125 0.265625 C 1.203125 0.171875 0.988281 0.00390625 0.8125 -0.234375 C 0.644531 -0.472656 0.5625 -0.722656 0.5625 -0.984375 Z M 4.90625 1.03125 C 4.90625 0.632812 4.640625 0.4375 4.109375 0.4375 L 2.125 0.4375 C 1.757812 0.707031 1.578125 1.007812 1.578125 1.34375 C 1.578125 1.613281 1.703125 1.816406 1.953125 1.953125 C 2.210938 2.085938 2.566406 2.15625 3.015625 2.15625 C 3.617188 2.15625 4.082031 2.054688 4.40625 1.859375 C 4.738281 1.660156 4.90625 1.382812 4.90625 1.03125 Z M 3.09375 -2.5625 C 3.394531 -2.5625 3.613281 -2.679688 3.75 -2.921875 C 3.894531 -3.160156 3.96875 -3.519531 3.96875 -4 C 3.96875 -4.476562 3.898438 -4.832031 3.765625 -5.0625 C 3.628906 -5.289062 3.40625 -5.40625 3.09375 -5.40625 C 2.800781 -5.40625 2.585938 -5.289062 2.453125 -5.0625 C 2.328125 -4.832031 2.265625 -4.476562 2.265625 -4 C 2.265625 -3.519531 2.328125 -3.160156 2.453125 -2.921875 C 2.585938 -2.679688 2.800781 -2.5625 3.09375 -2.5625 Z M 3.09375 -2.5625 "/>
</g>
<g id="glyph-0-18">
<path d="M 2.5625 -5.578125 C 3 -5.878906 3.539062 -6.03125 4.1875 -6.03125 C 5 -6.03125 5.601562 -5.789062 6 -5.3125 C 6.394531 -4.832031 6.59375 -4.078125 6.59375 -3.046875 C 6.59375 -2.015625 6.363281 -1.226562 5.90625 -0.6875 C 5.445312 -0.144531 4.78125 0.125 3.90625 0.125 C 3.46875 0.125 3.023438 0.0664062 2.578125 -0.046875 C 2.597656 0.230469 2.609375 0.539062 2.609375 0.875 L 2.609375 2.15625 L 3.46875 2.3125 L 3.46875 2.71875 L 0.171875 2.71875 L 0.171875 2.3125 L 0.8125 2.15625 L 0.8125 -5.3125 L 0.15625 -5.46875 L 0.15625 -5.875 L 2.546875 -5.875 Z M 4.765625 -3 C 4.765625 -4.5625 4.40625 -5.34375 3.6875 -5.34375 C 3.289062 -5.34375 2.929688 -5.257812 2.609375 -5.09375 L 2.609375 -0.671875 C 2.953125 -0.578125 3.304688 -0.53125 3.671875 -0.53125 C 4.398438 -0.53125 4.765625 -1.351562 4.765625 -3 Z M 4.765625 -3 "/>
</g>
<g id="glyph-0-19">
<path d="M 4.5625 -7.921875 L 3.265625 -7.765625 L 3.265625 -0.65625 L 4.96875 -0.65625 C 5.851562 -0.65625 6.503906 -0.695312 6.921875 -0.78125 L 7.4375 -2.53125 L 8 -2.53125 L 7.765625 0 L 0.21875 0 L 0.21875 -0.453125 L 1.296875 -0.625 L 1.296875 -7.765625 L 0.21875 -7.921875 L 0.21875 -8.375 L 4.5625 -8.375 Z M 4.5625 -7.921875 "/>
</g>
<g id="glyph-0-20">
<path d="M 5.515625 0 L 5.171875 0 L 2.078125 -7.078125 L 2.078125 -0.625 L 3.203125 -0.453125 L 3.203125 0 L 0.21875 0 L 0.21875 -0.453125 L 1.296875 -0.625 L 1.296875 -7.765625 L 0.21875 -7.921875 L 0.21875 -8.375 L 3.515625 -8.375 L 5.90625 -2.875 L 8.34375 -8.375 L 11.703125 -8.375 L 11.703125 -7.921875 L 10.640625 -7.765625 L 10.640625 -0.625 L 11.703125 -0.453125 L 11.703125 0 L 7.546875 0 L 7.546875 -0.453125 L 8.671875 -0.625 L 8.671875 -7.078125 Z M 5.515625 0 "/>
</g>
<g id="glyph-0-21">
<path d="M 3.265625 -3.578125 L 3.265625 -0.625 L 4.65625 -0.453125 L 4.65625 0 L 0.296875 0 L 0.296875 -0.453125 L 1.296875 -0.625 L 1.296875 -7.765625 L 0.21875 -7.921875 L 0.21875 -8.375 L 7.203125 -8.375 L 7.203125 -6.125 L 6.609375 -6.125 L 6.421875 -7.609375 C 6.210938 -7.628906 5.875 -7.644531 5.40625 -7.65625 C 4.9375 -7.675781 4.566406 -7.6875 4.296875 -7.6875 L 3.265625 -7.6875 L 3.265625 -4.265625 L 5.3125 -4.265625 L 5.5 -5.328125 L 6.0625 -5.328125 L 6.0625 -2.5 L 5.5 -2.5 L 5.3125 -3.578125 Z M 3.265625 -3.578125 "/>
</g>
<g id="glyph-0-22">
<path d="M 5.46875 -5.28125 L 6.8125 -1.9375 L 7.953125 -5.3125 L 7.265625 -5.46875 L 7.265625 -5.875 L 9.171875 -5.875 L 9.171875 -5.46875 L 8.71875 -5.34375 L 6.75 0.125 L 6 0.125 L 4.65625 -3.171875 L 3.3125 0.125 L 2.5625 0.125 L 0.46875 -5.3125 L 0.03125 -5.46875 L 0.03125 -5.875 L 2.9375 -5.875 L 2.9375 -5.46875 L 2.25 -5.296875 L 3.5 -1.9375 L 4.875 -5.28125 Z M 5.46875 -5.28125 "/>
</g>
<g id="glyph-1-0">
<path d="M 4.15625 -2.09375 C 4.15625 -0.632812 3.507812 0.09375 2.21875 0.09375 C 1.601562 0.09375 1.132812 -0.09375 0.8125 -0.46875 C 0.5 -0.84375 0.34375 -1.382812 0.34375 -2.09375 C 0.34375 -2.789062 0.5 -3.320312 0.8125 -3.6875 C 1.132812 -4.050781 1.617188 -4.234375 2.265625 -4.234375 C 2.890625 -4.234375 3.359375 -4.050781 3.671875 -3.6875 C 3.992188 -3.332031 4.15625 -2.800781 4.15625 -2.09375 Z M 3.359375 -2.09375 C 3.359375 -2.71875 3.265625 -3.171875 3.078125 -3.453125 C 2.898438 -3.742188 2.613281 -3.890625 2.21875 -3.890625 C 1.832031 -3.890625 1.554688 -3.753906 1.390625 -3.484375 C 1.222656 -3.210938 1.140625 -2.75 1.140625 -2.09375 C 1.140625 -1.425781 1.222656 -0.953125 1.390625 -0.671875 C 1.566406 -0.398438 1.84375 -0.265625 2.21875 -0.265625 C 2.601562 -0.265625 2.890625 -0.40625 3.078125 -0.6875 C 3.265625 -0.976562 3.359375 -1.445312 3.359375 -2.09375 Z M 3.359375 -2.09375 "/>
</g>
<g id="glyph-1-1">
<path d="M 3.359375 -2.1875 C 3.359375 -2.71875 3.265625 -3.113281 3.078125 -3.375 C 2.890625 -3.644531 2.601562 -3.78125 2.21875 -3.78125 C 2.039062 -3.78125 1.867188 -3.765625 1.703125 -3.734375 C 1.535156 -3.703125 1.410156 -3.671875 1.328125 -3.640625 L 1.328125 -0.359375 C 1.578125 -0.316406 1.875 -0.296875 2.21875 -0.296875 C 2.625 -0.296875 2.914062 -0.453125 3.09375 -0.765625 C 3.269531 -1.078125 3.359375 -1.550781 3.359375 -2.1875 Z M 0.609375 -5.9375 L 0 -6.046875 L 0 -6.25 L 1.328125 -6.25 L 1.328125 -4.765625 C 1.328125 -4.609375 1.320312 -4.316406 1.3125 -3.890625 C 1.601562 -4.117188 1.96875 -4.234375 2.40625 -4.234375 C 2.96875 -4.234375 3.398438 -4.0625 3.703125 -3.71875 C 4.003906 -3.382812 4.15625 -2.875 4.15625 -2.1875 C 4.15625 -1.4375 3.988281 -0.867188 3.65625 -0.484375 C 3.332031 -0.0976562 2.859375 0.09375 2.234375 0.09375 C 1.984375 0.09375 1.703125 0.0625 1.390625 0 C 1.085938 -0.0507812 0.828125 -0.125 0.609375 -0.21875 Z M 0.609375 -5.9375 "/>
</g>
<g id="glyph-1-2">
<path d="M 3.171875 -1.15625 C 3.171875 -0.75 3.039062 -0.4375 2.78125 -0.21875 C 2.53125 -0.0078125 2.148438 0.09375 1.640625 0.09375 C 1.429688 0.09375 1.203125 0.0664062 0.953125 0.015625 C 0.710938 -0.0234375 0.519531 -0.0703125 0.375 -0.125 L 0.375 -1.140625 L 0.578125 -1.140625 L 0.796875 -0.5625 C 1.015625 -0.363281 1.296875 -0.265625 1.640625 -0.265625 C 2.210938 -0.265625 2.5 -0.503906 2.5 -0.984375 C 2.5 -1.347656 2.273438 -1.601562 1.828125 -1.75 L 1.4375 -1.875 C 1.144531 -1.976562 0.929688 -2.078125 0.796875 -2.171875 C 0.660156 -2.273438 0.554688 -2.398438 0.484375 -2.546875 C 0.410156 -2.691406 0.375 -2.863281 0.375 -3.0625 C 0.375 -3.425781 0.492188 -3.710938 0.734375 -3.921875 C 0.984375 -4.128906 1.320312 -4.234375 1.75 -4.234375 C 2.050781 -4.234375 2.425781 -4.191406 2.875 -4.109375 L 2.875 -3.203125 L 2.671875 -3.203125 L 2.484375 -3.6875 C 2.328125 -3.820312 2.082031 -3.890625 1.75 -3.890625 C 1.507812 -3.890625 1.328125 -3.828125 1.203125 -3.703125 C 1.085938 -3.585938 1.03125 -3.429688 1.03125 -3.234375 C 1.03125 -3.066406 1.082031 -2.925781 1.1875 -2.8125 C 1.300781 -2.695312 1.472656 -2.601562 1.703125 -2.53125 C 2.128906 -2.382812 2.410156 -2.273438 2.546875 -2.203125 C 2.679688 -2.140625 2.796875 -2.054688 2.890625 -1.953125 C 2.984375 -1.859375 3.050781 -1.75 3.09375 -1.625 C 3.144531 -1.5 3.171875 -1.34375 3.171875 -1.15625 Z M 3.171875 -1.15625 "/>
</g>
<g id="glyph-1-3">
<path d="M 1.140625 -2.078125 L 1.140625 -2 C 1.140625 -1.59375 1.179688 -1.273438 1.265625 -1.046875 C 1.359375 -0.828125 1.5 -0.660156 1.6875 -0.546875 C 1.875 -0.429688 2.117188 -0.375 2.421875 -0.375 C 2.578125 -0.375 2.765625 -0.382812 2.984375 -0.40625 C 3.203125 -0.4375 3.378906 -0.46875 3.515625 -0.5 L 3.515625 -0.25 C 3.378906 -0.15625 3.1875 -0.0703125 2.9375 0 C 2.695312 0.0625 2.453125 0.09375 2.203125 0.09375 C 1.566406 0.09375 1.097656 -0.078125 0.796875 -0.421875 C 0.503906 -0.773438 0.359375 -1.332031 0.359375 -2.09375 C 0.359375 -2.8125 0.503906 -3.347656 0.796875 -3.703125 C 1.097656 -4.054688 1.53125 -4.234375 2.09375 -4.234375 C 3.15625 -4.234375 3.6875 -3.632812 3.6875 -2.4375 L 3.6875 -2.078125 Z M 2.09375 -3.890625 C 1.789062 -3.890625 1.554688 -3.765625 1.390625 -3.515625 C 1.234375 -3.273438 1.15625 -2.914062 1.15625 -2.4375 L 2.921875 -2.4375 C 2.921875 -2.957031 2.851562 -3.328125 2.71875 -3.546875 C 2.582031 -3.773438 2.375 -3.890625 2.09375 -3.890625 Z M 2.09375 -3.890625 "/>
</g>
<g id="glyph-1-4">
<path d="M 2.921875 -4.234375 L 2.921875 -3.125 L 2.734375 -3.125 L 2.46875 -3.609375 C 2.320312 -3.609375 2.148438 -3.585938 1.953125 -3.546875 C 1.753906 -3.503906 1.582031 -3.453125 1.4375 -3.390625 L 1.4375 -0.3125 L 2.140625 -0.203125 L 2.140625 0 L 0.1875 0 L 0.1875 -0.203125 L 0.703125 -0.3125 L 0.703125 -3.828125 L 0.1875 -3.9375 L 0.1875 -4.125 L 1.390625 -4.125 L 1.421875 -3.609375 C 1.597656 -3.765625 1.835938 -3.90625 2.140625 -4.03125 C 2.441406 -4.164062 2.679688 -4.234375 2.859375 -4.234375 Z M 2.921875 -4.234375 "/>
</g>
<g id="glyph-1-5">
<path d="M 2.453125 0.09375 L 2.125 0.09375 L 0.421875 -3.828125 L 0 -3.9375 L 0 -4.125 L 1.921875 -4.125 L 1.921875 -3.9375 L 1.265625 -3.8125 L 2.46875 -0.96875 L 3.625 -3.828125 L 2.96875 -3.9375 L 2.96875 -4.125 L 4.5 -4.125 L 4.5 -3.9375 L 4.109375 -3.84375 Z M 2.453125 0.09375 "/>
</g>
<g id="glyph-1-6">
<path d="M 2.046875 -4.21875 C 2.492188 -4.21875 2.820312 -4.125 3.03125 -3.9375 C 3.25 -3.757812 3.359375 -3.476562 3.359375 -3.09375 L 3.359375 -0.3125 L 3.875 -0.203125 L 3.875 0 L 2.734375 0 L 2.65625 -0.40625 C 2.320312 -0.0703125 1.894531 0.09375 1.375 0.09375 C 0.664062 0.09375 0.3125 -0.316406 0.3125 -1.140625 C 0.3125 -1.421875 0.363281 -1.648438 0.46875 -1.828125 C 0.582031 -2.003906 0.753906 -2.140625 0.984375 -2.234375 C 1.222656 -2.328125 1.566406 -2.378906 2.015625 -2.390625 L 2.625 -2.40625 L 2.625 -3.0625 C 2.625 -3.34375 2.570312 -3.550781 2.46875 -3.6875 C 2.363281 -3.820312 2.203125 -3.890625 1.984375 -3.890625 C 1.691406 -3.890625 1.425781 -3.820312 1.1875 -3.6875 L 1.03125 -3.171875 L 0.796875 -3.171875 L 0.796875 -4.0625 C 1.265625 -4.164062 1.679688 -4.21875 2.046875 -4.21875 Z M 2.625 -2.109375 L 2.046875 -2.09375 C 1.660156 -2.070312 1.394531 -1.992188 1.25 -1.859375 C 1.113281 -1.722656 1.046875 -1.492188 1.046875 -1.171875 C 1.046875 -0.648438 1.253906 -0.390625 1.671875 -0.390625 C 1.867188 -0.390625 2.039062 -0.410156 2.1875 -0.453125 C 2.332031 -0.503906 2.476562 -0.566406 2.625 -0.640625 Z M 2.625 -2.109375 "/>
</g>
<g id="glyph-1-7">
<path d="M 1.46875 0.09375 C 1.1875 0.09375 0.972656 0.0078125 0.828125 -0.15625 C 0.691406 -0.320312 0.625 -0.554688 0.625 -0.859375 L 0.625 -3.765625 L 0.09375 -3.765625 L 0.09375 -3.953125 L 0.640625 -4.125 L 1.078125 -5.0625 L 1.359375 -5.0625 L 1.359375 -4.125 L 2.296875 -4.125 L 2.296875 -3.765625 L 1.359375 -3.765625 L 1.359375 -0.9375 C 1.359375 -0.75 1.398438 -0.609375 1.484375 -0.515625 C 1.578125 -0.421875 1.691406 -0.375 1.828125 -0.375 C 1.992188 -0.375 2.203125 -0.394531 2.453125 -0.4375 L 2.453125 -0.15625 C 2.347656 -0.0820312 2.195312 -0.0234375 2 0.015625 C 1.8125 0.0664062 1.632812 0.09375 1.46875 0.09375 Z M 1.46875 0.09375 "/>
</g>
<g id="glyph-1-8">
<path d="M 1.671875 -5.484375 C 1.671875 -5.347656 1.625 -5.234375 1.53125 -5.140625 C 1.4375 -5.046875 1.320312 -5 1.1875 -5 C 1.0625 -5 0.953125 -5.046875 0.859375 -5.140625 C 0.765625 -5.234375 0.71875 -5.347656 0.71875 -5.484375 C 0.71875 -5.609375 0.765625 -5.71875 0.859375 -5.8125 C 0.953125 -5.90625 1.0625 -5.953125 1.1875 -5.953125 C 1.320312 -5.953125 1.4375 -5.90625 1.53125 -5.8125 C 1.625 -5.71875 1.671875 -5.609375 1.671875 -5.484375 Z M 1.625 -0.3125 L 2.328125 -0.203125 L 2.328125 0 L 0.1875 0 L 0.1875 -0.203125 L 0.890625 -0.3125 L 0.890625 -3.828125 L 0.3125 -3.9375 L 0.3125 -4.125 L 1.625 -4.125 Z M 1.625 -0.3125 "/>
</g>
<g id="glyph-1-9">
<path d="M 1.421875 -3.796875 C 1.648438 -3.921875 1.890625 -4.023438 2.140625 -4.109375 C 2.398438 -4.191406 2.613281 -4.234375 2.78125 -4.234375 C 3.132812 -4.234375 3.398438 -4.128906 3.578125 -3.921875 C 3.765625 -3.710938 3.859375 -3.414062 3.859375 -3.03125 L 3.859375 -0.3125 L 4.359375 -0.203125 L 4.359375 0 L 2.578125 0 L 2.578125 -0.203125 L 3.140625 -0.3125 L 3.140625 -2.9375 C 3.140625 -3.1875 3.078125 -3.378906 2.953125 -3.515625 C 2.835938 -3.660156 2.65625 -3.734375 2.40625 -3.734375 C 2.144531 -3.734375 1.820312 -3.6875 1.4375 -3.59375 L 1.4375 -0.3125 L 1.984375 -0.203125 L 1.984375 0 L 0.203125 0 L 0.203125 -0.203125 L 0.703125 -0.3125 L 0.703125 -3.828125 L 0.203125 -3.9375 L 0.203125 -4.125 L 1.390625 -4.125 Z M 1.421875 -3.796875 "/>
</g>
<g id="glyph-1-10">
<path d="M 0.671875 -3.828125 L 0.203125 -3.9375 L 0.203125 -4.125 L 1.359375 -4.125 L 1.359375 -3.890625 C 1.484375 -3.992188 1.648438 -4.078125 1.859375 -4.140625 C 2.066406 -4.203125 2.273438 -4.234375 2.484375 -4.234375 C 3.015625 -4.234375 3.425781 -4.050781 3.71875 -3.6875 C 4.007812 -3.320312 4.15625 -2.796875 4.15625 -2.109375 C 4.15625 -1.410156 3.992188 -0.867188 3.671875 -0.484375 C 3.359375 -0.0976562 2.90625 0.09375 2.3125 0.09375 C 1.976562 0.09375 1.660156 0.0546875 1.359375 -0.015625 C 1.378906 0.203125 1.390625 0.367188 1.390625 0.484375 L 1.390625 1.609375 L 2.109375 1.703125 L 2.109375 1.921875 L 0.140625 1.921875 L 0.140625 1.703125 L 0.671875 1.609375 Z M 3.359375 -2.109375 C 3.359375 -2.671875 3.265625 -3.085938 3.078125 -3.359375 C 2.898438 -3.640625 2.625 -3.78125 2.25 -3.78125 C 1.90625 -3.78125 1.617188 -3.734375 1.390625 -3.640625 L 1.390625 -0.328125 C 1.648438 -0.285156 1.9375 -0.265625 2.25 -0.265625 C 2.988281 -0.265625 3.359375 -0.878906 3.359375 -2.109375 Z M 3.359375 -2.109375 "/>
</g>
<g id="glyph-1-11">
<path d="M 3.71875 -0.25 C 3.570312 -0.144531 3.375 -0.0625 3.125 0 C 2.875 0.0625 2.613281 0.09375 2.34375 0.09375 C 1.007812 0.09375 0.34375 -0.632812 0.34375 -2.09375 C 0.34375 -2.78125 0.507812 -3.304688 0.84375 -3.671875 C 1.1875 -4.046875 1.679688 -4.234375 2.328125 -4.234375 C 2.710938 -4.234375 3.140625 -4.191406 3.609375 -4.109375 L 3.609375 -2.953125 L 3.375 -2.953125 L 3.1875 -3.6875 C 2.945312 -3.820312 2.65625 -3.890625 2.3125 -3.890625 C 1.53125 -3.890625 1.140625 -3.289062 1.140625 -2.09375 C 1.140625 -1.476562 1.253906 -1.035156 1.484375 -0.765625 C 1.722656 -0.503906 2.097656 -0.375 2.609375 -0.375 C 3.035156 -0.375 3.40625 -0.421875 3.71875 -0.515625 Z M 3.71875 -0.25 "/>
</g>
<g id="glyph-1-12">
<path d="M 3.171875 -0.3125 C 2.847656 -0.0390625 2.460938 0.09375 2.015625 0.09375 C 0.890625 0.09375 0.328125 -0.613281 0.328125 -2.03125 C 0.328125 -2.75 0.484375 -3.296875 0.796875 -3.671875 C 1.117188 -4.046875 1.59375 -4.234375 2.21875 -4.234375 C 2.53125 -4.234375 2.847656 -4.203125 3.171875 -4.140625 C 3.160156 -4.234375 3.15625 -4.476562 3.15625 -4.875 L 3.15625 -5.9375 L 2.453125 -6.046875 L 2.453125 -6.25 L 3.875 -6.25 L 3.875 -0.3125 L 4.390625 -0.203125 L 4.390625 0 L 3.234375 0 Z M 1.109375 -2.03125 C 1.109375 -1.46875 1.203125 -1.050781 1.390625 -0.78125 C 1.578125 -0.507812 1.867188 -0.375 2.265625 -0.375 C 2.585938 -0.375 2.882812 -0.429688 3.15625 -0.546875 L 3.15625 -3.8125 C 2.894531 -3.851562 2.597656 -3.875 2.265625 -3.875 C 1.492188 -3.875 1.109375 -3.257812 1.109375 -2.03125 Z M 1.109375 -2.03125 "/>
</g>
<g id="glyph-1-13">
</g>
<g id="glyph-1-14">
<path d="M 2.03125 -2.984375 C 2.03125 -2.828125 1.976562 -2.695312 1.875 -2.59375 C 1.769531 -2.5 1.644531 -2.453125 1.5 -2.453125 C 1.351562 -2.453125 1.226562 -2.5 1.125 -2.59375 C 1.019531 -2.695312 0.96875 -2.828125 0.96875 -2.984375 C 0.96875 -3.117188 1.015625 -3.238281 1.109375 -3.34375 C 1.210938 -3.457031 1.34375 -3.515625 1.5 -3.515625 C 1.65625 -3.515625 1.78125 -3.457031 1.875 -3.34375 C 1.976562 -3.238281 2.03125 -3.117188 2.03125 -2.984375 Z M 2.03125 -2.984375 "/>
</g>
<g id="glyph-1-15">
<path d="M 1.4375 -3.796875 C 1.65625 -3.921875 1.882812 -4.023438 2.125 -4.109375 C 2.375 -4.191406 2.59375 -4.234375 2.78125 -4.234375 C 2.976562 -4.234375 3.160156 -4.195312 3.328125 -4.125 C 3.503906 -4.050781 3.640625 -3.929688 3.734375 -3.765625 C 3.953125 -3.890625 4.210938 -4 4.515625 -4.09375 C 4.816406 -4.1875 5.070312 -4.234375 5.28125 -4.234375 C 5.976562 -4.234375 6.328125 -3.832031 6.328125 -3.03125 L 6.328125 -0.3125 L 6.859375 -0.203125 L 6.859375 0 L 4.984375 0 L 4.984375 -0.203125 L 5.59375 -0.3125 L 5.59375 -2.9375 C 5.59375 -3.445312 5.359375 -3.703125 4.890625 -3.703125 C 4.816406 -3.703125 4.726562 -3.695312 4.625 -3.6875 C 4.53125 -3.675781 4.429688 -3.660156 4.328125 -3.640625 C 4.222656 -3.628906 4.125 -3.613281 4.03125 -3.59375 C 3.9375 -3.570312 3.863281 -3.554688 3.8125 -3.546875 C 3.851562 -3.390625 3.875 -3.21875 3.875 -3.03125 L 3.875 -0.3125 L 4.5 -0.203125 L 4.5 0 L 2.546875 0 L 2.546875 -0.203125 L 3.15625 -0.3125 L 3.15625 -2.9375 C 3.15625 -3.1875 3.09375 -3.375 2.96875 -3.5 C 2.84375 -3.632812 2.65625 -3.703125 2.40625 -3.703125 C 2.144531 -3.703125 1.820312 -3.660156 1.4375 -3.578125 L 1.4375 -0.3125 L 2.0625 -0.203125 L 2.0625 0 L 0.1875 0 L 0.1875 -0.203125 L 0.71875 -0.3125 L 0.71875 -3.828125 L 0.1875 -3.9375 L 0.1875 -4.125 L 1.390625 -4.125 Z M 1.4375 -3.796875 "/>
</g>
<g id="glyph-1-16">
<path d="M 1.609375 -0.3125 L 2.328125 -0.203125 L 2.328125 0 L 0.1875 0 L 0.1875 -0.203125 L 0.890625 -0.3125 L 0.890625 -5.9375 L 0.1875 -6.046875 L 0.1875 -6.25 L 1.609375 -6.25 Z M 1.609375 -0.3125 "/>
</g>
<g id="glyph-1-17">
<path d="M 0.875 1.9375 C 0.644531 1.9375 0.421875 1.910156 0.203125 1.859375 L 0.203125 0.96875 L 0.40625 0.96875 L 0.546875 1.390625 C 0.640625 1.460938 0.765625 1.5 0.921875 1.5 C 1.078125 1.5 1.21875 1.453125 1.34375 1.359375 C 1.476562 1.273438 1.597656 1.144531 1.703125 0.96875 C 1.804688 0.800781 1.941406 0.492188 2.109375 0.046875 L 0.53125 -3.828125 L 0.109375 -3.9375 L 0.109375 -4.125 L 2.03125 -4.125 L 2.03125 -3.9375 L 1.375 -3.8125 L 2.484375 -0.921875 L 3.578125 -3.828125 L 2.921875 -3.9375 L 2.921875 -4.125 L 4.46875 -4.125 L 4.46875 -3.9375 L 4.03125 -3.84375 L 2.421875 0.265625 C 2.234375 0.742188 2.066406 1.085938 1.921875 1.296875 C 1.785156 1.515625 1.628906 1.675781 1.453125 1.78125 C 1.285156 1.882812 1.09375 1.9375 0.875 1.9375 Z M 0.875 1.9375 "/>
</g>
<g id="glyph-1-18">
<path d="M 0.984375 -3.765625 L 0.28125 -3.765625 L 0.28125 -3.984375 L 0.984375 -4.15625 L 0.984375 -4.4375 C 0.984375 -5.050781 1.101562 -5.519531 1.34375 -5.84375 C 1.59375 -6.175781 1.9375 -6.34375 2.375 -6.34375 C 2.59375 -6.34375 2.800781 -6.3125 3 -6.25 L 3 -5.359375 L 2.78125 -5.359375 L 2.578125 -5.890625 C 2.484375 -5.953125 2.363281 -5.984375 2.21875 -5.984375 C 2.039062 -5.984375 1.910156 -5.898438 1.828125 -5.734375 C 1.753906 -5.578125 1.71875 -5.269531 1.71875 -4.8125 L 1.71875 -4.125 L 2.8125 -4.125 L 2.8125 -3.765625 L 1.71875 -3.765625 L 1.71875 -0.34375 L 2.609375 -0.203125 L 2.609375 0 L 0.375 0 L 0.375 -0.203125 L 0.984375 -0.34375 Z M 0.984375 -3.765625 "/>
</g>
<g id="glyph-1-19">
<path d="M 1.4375 -4.453125 C 1.4375 -4.148438 1.425781 -3.929688 1.40625 -3.796875 C 1.613281 -3.921875 1.847656 -4.023438 2.109375 -4.109375 C 2.378906 -4.191406 2.609375 -4.234375 2.796875 -4.234375 C 3.148438 -4.234375 3.414062 -4.128906 3.59375 -3.921875 C 3.78125 -3.710938 3.875 -3.414062 3.875 -3.03125 L 3.875 -0.3125 L 4.375 -0.203125 L 4.375 0 L 2.609375 0 L 2.609375 -0.203125 L 3.15625 -0.3125 L 3.15625 -2.96875 C 3.15625 -3.476562 2.910156 -3.734375 2.421875 -3.734375 C 2.148438 -3.734375 1.820312 -3.6875 1.4375 -3.59375 L 1.4375 -0.3125 L 1.984375 -0.203125 L 1.984375 0 L 0.1875 0 L 0.1875 -0.203125 L 0.703125 -0.3125 L 0.703125 -5.9375 L 0.09375 -6.046875 L 0.09375 -6.25 L 1.4375 -6.25 Z M 1.4375 -4.453125 "/>
</g>
<g id="glyph-1-20">
<path d="M 1.515625 -1.984375 L 3.203125 -3.8125 L 2.765625 -3.9375 L 2.765625 -4.125 L 4.234375 -4.125 L 4.234375 -3.9375 L 3.71875 -3.828125 L 2.546875 -2.625 L 4.046875 -0.296875 L 4.5 -0.203125 L 4.5 0 L 2.8125 0 L 2.8125 -0.203125 L 3.1875 -0.3125 L 2.046875 -2.09375 L 1.515625 -1.5 L 1.515625 -0.3125 L 1.953125 -0.203125 L 1.953125 0 L 0.265625 0 L 0.265625 -0.203125 L 0.78125 -0.3125 L 0.78125 -5.9375 L 0.171875 -6.046875 L 0.171875 -6.25 L 1.515625 -6.25 Z M 1.515625 -1.984375 "/>
</g>
<g id="glyph-1-21">
<path d="M 0.328125 -1.78125 L 0.328125 -2.453125 L 2.671875 -2.453125 L 2.671875 -1.78125 Z M 0.328125 -1.78125 "/>
</g>
<g id="glyph-2-0">
<path d="M 6.59375 -3.3125 C 6.59375 -2.132812 6.335938 -1.265625 5.828125 -0.703125 C 5.328125 -0.140625 4.5625 0.140625 3.53125 0.140625 C 2.519531 0.140625 1.769531 -0.140625 1.28125 -0.703125 C 0.789062 -1.273438 0.546875 -2.144531 0.546875 -3.3125 C 0.546875 -4.46875 0.796875 -5.320312 1.296875 -5.875 C 1.796875 -6.4375 2.554688 -6.71875 3.578125 -6.71875 C 4.617188 -6.71875 5.378906 -6.425781 5.859375 -5.84375 C 6.347656 -5.269531 6.59375 -4.425781 6.59375 -3.3125 Z M 4.546875 -3.3125 C 4.546875 -4.332031 4.46875 -5.035156 4.3125 -5.421875 C 4.164062 -5.816406 3.90625 -6.015625 3.53125 -6.015625 C 3.175781 -6.015625 2.925781 -5.828125 2.78125 -5.453125 C 2.644531 -5.078125 2.578125 -4.363281 2.578125 -3.3125 C 2.578125 -2.238281 2.648438 -1.507812 2.796875 -1.125 C 2.941406 -0.75 3.1875 -0.5625 3.53125 -0.5625 C 3.90625 -0.5625 4.164062 -0.757812 4.3125 -1.15625 C 4.46875 -1.5625 4.546875 -2.28125 4.546875 -3.3125 Z M 4.546875 -3.3125 "/>
</g>
<g id="glyph-2-1">
<path d="M 5.3125 -3.46875 C 5.3125 -4.320312 5.207031 -4.945312 5 -5.34375 C 4.789062 -5.75 4.441406 -5.953125 3.953125 -5.953125 C 3.773438 -5.953125 3.582031 -5.929688 3.375 -5.890625 C 3.164062 -5.847656 2.992188 -5.789062 2.859375 -5.71875 L 2.859375 -0.703125 C 3.160156 -0.628906 3.523438 -0.59375 3.953125 -0.59375 C 4.410156 -0.59375 4.75 -0.816406 4.96875 -1.265625 C 5.195312 -1.710938 5.3125 -2.445312 5.3125 -3.46875 Z M 0.84375 -9.28125 L 0.1875 -9.453125 L 0.1875 -9.890625 L 2.859375 -9.890625 L 2.859375 -7.5 C 2.859375 -7.0625 2.835938 -6.617188 2.796875 -6.171875 C 2.984375 -6.328125 3.25 -6.457031 3.59375 -6.5625 C 3.945312 -6.664062 4.289062 -6.71875 4.625 -6.71875 C 5.570312 -6.71875 6.265625 -6.457031 6.703125 -5.9375 C 7.140625 -5.414062 7.359375 -4.585938 7.359375 -3.453125 C 7.359375 -2.328125 7.078125 -1.445312 6.515625 -0.8125 C 5.953125 -0.175781 5.164062 0.140625 4.15625 0.140625 C 3.394531 0.140625 2.289062 -0.015625 0.84375 -0.328125 Z M 0.84375 -9.28125 "/>
</g>
<g id="glyph-2-2">
<path d="M 5.203125 -2.078125 C 5.203125 -1.347656 4.976562 -0.796875 4.53125 -0.421875 C 4.082031 -0.046875 3.429688 0.140625 2.578125 0.140625 C 2.222656 0.140625 1.832031 0.0976562 1.40625 0.015625 C 0.976562 -0.0546875 0.660156 -0.132812 0.453125 -0.21875 L 0.453125 -2 L 0.90625 -2 L 1.171875 -1.078125 C 1.328125 -0.910156 1.535156 -0.773438 1.796875 -0.671875 C 2.066406 -0.566406 2.34375 -0.515625 2.625 -0.515625 C 3.019531 -0.515625 3.316406 -0.597656 3.515625 -0.765625 C 3.710938 -0.941406 3.8125 -1.164062 3.8125 -1.4375 C 3.8125 -1.6875 3.71875 -1.890625 3.53125 -2.046875 C 3.34375 -2.203125 2.925781 -2.378906 2.28125 -2.578125 C 1.613281 -2.785156 1.140625 -3.070312 0.859375 -3.4375 C 0.578125 -3.800781 0.4375 -4.242188 0.4375 -4.765625 C 0.4375 -5.359375 0.65625 -5.832031 1.09375 -6.1875 C 1.53125 -6.539062 2.097656 -6.71875 2.796875 -6.71875 C 3.273438 -6.71875 3.921875 -6.648438 4.734375 -6.515625 L 4.734375 -4.84375 L 4.265625 -4.84375 L 4.046875 -5.609375 C 3.910156 -5.742188 3.71875 -5.851562 3.46875 -5.9375 C 3.226562 -6.019531 3 -6.0625 2.78125 -6.0625 C 2.445312 -6.0625 2.195312 -5.992188 2.03125 -5.859375 C 1.875 -5.722656 1.796875 -5.535156 1.796875 -5.296875 C 1.796875 -5.054688 1.894531 -4.851562 2.09375 -4.6875 C 2.300781 -4.53125 2.71875 -4.359375 3.34375 -4.171875 C 4.019531 -3.960938 4.5 -3.6875 4.78125 -3.34375 C 5.0625 -3.007812 5.203125 -2.585938 5.203125 -2.078125 Z M 5.203125 -2.078125 "/>
</g>
<g id="glyph-2-3">
<path d="M 3.4375 -6.703125 C 4.320312 -6.703125 4.960938 -6.460938 5.359375 -5.984375 C 5.765625 -5.515625 5.96875 -4.785156 5.96875 -3.796875 L 5.96875 -3.21875 L 2.53125 -3.21875 L 2.53125 -3.109375 C 2.53125 -2.410156 2.582031 -1.914062 2.6875 -1.625 C 2.800781 -1.332031 2.984375 -1.109375 3.234375 -0.953125 C 3.484375 -0.804688 3.828125 -0.734375 4.265625 -0.734375 C 4.679688 -0.734375 5.195312 -0.800781 5.8125 -0.9375 L 5.8125 -0.390625 C 5.5625 -0.242188 5.234375 -0.117188 4.828125 -0.015625 C 4.421875 0.078125 4.023438 0.125 3.640625 0.125 C 2.566406 0.125 1.769531 -0.148438 1.25 -0.703125 C 0.738281 -1.265625 0.484375 -2.132812 0.484375 -3.3125 C 0.484375 -4.445312 0.726562 -5.296875 1.21875 -5.859375 C 1.707031 -6.421875 2.445312 -6.703125 3.4375 -6.703125 Z M 3.359375 -6 C 3.085938 -6 2.878906 -5.847656 2.734375 -5.546875 C 2.597656 -5.242188 2.53125 -4.710938 2.53125 -3.953125 L 4.046875 -3.953125 C 4.046875 -4.578125 4.023438 -5.015625 3.984375 -5.265625 C 3.941406 -5.515625 3.867188 -5.695312 3.765625 -5.8125 C 3.671875 -5.9375 3.535156 -6 3.359375 -6 Z M 3.359375 -6 "/>
</g>
<g id="glyph-2-4">
<path d="M 3.21875 -5.1875 C 3.71875 -5.75 4.164062 -6.148438 4.5625 -6.390625 C 4.957031 -6.628906 5.320312 -6.75 5.65625 -6.75 L 6.03125 -6.75 L 6.03125 -4.375 L 5.640625 -4.375 L 5.21875 -5.25 C 4.925781 -5.25 4.59375 -5.179688 4.21875 -5.046875 C 3.851562 -4.921875 3.53125 -4.773438 3.25 -4.609375 L 3.25 -0.625 L 4.296875 -0.453125 L 4.296875 0 L 0.390625 0 L 0.390625 -0.453125 L 1.234375 -0.625 L 1.234375 -5.921875 L 0.390625 -6.09375 L 0.390625 -6.546875 L 3.140625 -6.546875 Z M 3.21875 -5.1875 "/>
</g>
<g id="glyph-2-5">
<path d="M 4.046875 0.140625 L 3.203125 0.140625 L 0.453125 -5.921875 L 0 -6.09375 L 0 -6.546875 L 3.34375 -6.546875 L 3.34375 -6.09375 L 2.578125 -5.90625 L 4.25 -2.171875 L 5.765625 -5.921875 L 5 -6.09375 L 5 -6.546875 L 7.140625 -6.546875 L 7.140625 -6.09375 L 6.65625 -5.953125 Z M 4.046875 0.140625 "/>
</g>
<g id="glyph-2-6">
</g>
<g id="glyph-2-7">
<path d="M 9.796875 -2.671875 C 9.535156 -2.984375 9.257812 -3.441406 8.96875 -4.046875 L 9.46875 -4.046875 C 10.0625 -3.347656 10.691406 -2.832031 11.359375 -2.5 L 11.359375 -2.25 C 10.691406 -1.90625 10.0625 -1.390625 9.46875 -0.703125 L 8.96875 -0.703125 C 9.257812 -1.304688 9.535156 -1.757812 9.796875 -2.0625 L 2.90625 -2.0625 L 2.90625 -2.671875 Z M 9.796875 -2.671875 "/>
</g>
<g id="glyph-2-8">
<path d="M 0.21875 -6.09375 L 0.21875 -6.546875 L 3.71875 -6.546875 L 3.71875 -6.09375 L 2.984375 -5.90625 L 3.9375 -4.4375 L 5.203125 -5.921875 L 4.546875 -6.09375 L 4.546875 -6.546875 L 6.765625 -6.546875 L 6.765625 -6.09375 L 6.1875 -5.953125 L 4.359375 -3.796875 L 6.421875 -0.59375 L 7.0625 -0.453125 L 7.0625 0 L 3.5625 0 L 3.5625 -0.453125 L 4.296875 -0.609375 L 3.15625 -2.375 L 1.625 -0.59375 L 2.28125 -0.453125 L 2.28125 0 L 0.0625 0 L 0.0625 -0.453125 L 0.640625 -0.5625 L 2.734375 -3.015625 L 0.84375 -5.921875 Z M 0.21875 -6.09375 "/>
</g>
<g id="glyph-2-9">
<path d="M 5.96875 -0.390625 C 5.757812 -0.222656 5.472656 -0.09375 5.109375 0 C 4.742188 0.0820312 4.363281 0.125 3.96875 0.125 C 2.800781 0.125 1.925781 -0.148438 1.34375 -0.703125 C 0.769531 -1.265625 0.484375 -2.125 0.484375 -3.28125 C 0.484375 -4.007812 0.613281 -4.628906 0.875 -5.140625 C 1.144531 -5.648438 1.519531 -6.039062 2 -6.3125 C 2.488281 -6.582031 3.054688 -6.71875 3.703125 -6.71875 C 4.359375 -6.71875 5.066406 -6.640625 5.828125 -6.484375 L 5.828125 -4.546875 L 5.328125 -4.546875 L 5.03125 -5.6875 C 4.875 -5.800781 4.71875 -5.878906 4.5625 -5.921875 C 4.414062 -5.972656 4.21875 -6 3.96875 -6 C 3.6875 -6 3.4375 -5.890625 3.21875 -5.671875 C 3 -5.453125 2.828125 -5.144531 2.703125 -4.75 C 2.578125 -4.351562 2.515625 -3.878906 2.515625 -3.328125 C 2.515625 -2.390625 2.660156 -1.722656 2.953125 -1.328125 C 3.242188 -0.929688 3.703125 -0.734375 4.328125 -0.734375 C 4.972656 -0.734375 5.519531 -0.800781 5.96875 -0.9375 Z M 5.96875 -0.390625 "/>
</g>
<g id="glyph-2-10">
<path d="M 4.90625 -0.578125 L 4.4375 -0.328125 C 3.789062 0.00390625 3.207031 0.171875 2.6875 0.171875 C 1.476562 0.171875 0.875 -0.46875 0.875 -1.75 L 0.875 -5.921875 L 0.21875 -6.09375 L 0.21875 -6.546875 L 2.890625 -6.546875 L 2.890625 -2.03125 C 2.890625 -1.632812 2.96875 -1.328125 3.125 -1.109375 C 3.289062 -0.890625 3.53125 -0.78125 3.84375 -0.78125 C 4.195312 -0.78125 4.546875 -0.863281 4.890625 -1.03125 L 4.890625 -5.921875 L 4.296875 -6.09375 L 4.296875 -6.546875 L 6.90625 -6.546875 L 6.90625 -0.625 L 7.546875 -0.453125 L 7.546875 0 L 5.015625 0 Z M 4.90625 -0.578125 "/>
</g>
<g id="glyph-2-11">
<path d="M 3.046875 0.140625 C 2.421875 0.140625 1.9375 0 1.59375 -0.28125 C 1.257812 -0.5625 1.09375 -0.972656 1.09375 -1.515625 L 1.09375 -5.828125 L 0.234375 -5.828125 L 0.234375 -6.28125 L 1.234375 -6.546875 L 2.0625 -8.03125 L 3.09375 -8.03125 L 3.09375 -6.546875 L 4.484375 -6.546875 L 4.484375 -5.828125 L 3.09375 -5.828125 L 3.09375 -1.640625 C 3.09375 -1.335938 3.15625 -1.109375 3.28125 -0.953125 C 3.40625 -0.796875 3.570312 -0.71875 3.78125 -0.71875 C 4.03125 -0.71875 4.332031 -0.753906 4.6875 -0.828125 L 4.6875 -0.25 C 4.550781 -0.144531 4.3125 -0.0546875 3.96875 0.015625 C 3.632812 0.0976562 3.328125 0.140625 3.046875 0.140625 Z M 3.046875 0.140625 "/>
</g>
<g id="glyph-2-12">
<path d="M 3.03125 -0.625 L 3.75 -0.453125 L 3.75 0 L 0.3125 0 L 0.3125 -0.453125 L 1.03125 -0.625 L 1.03125 -5.921875 L 0.359375 -6.09375 L 0.359375 -6.546875 L 3.03125 -6.546875 Z M 0.953125 -8.828125 C 0.953125 -9.128906 1.054688 -9.378906 1.265625 -9.578125 C 1.484375 -9.785156 1.738281 -9.890625 2.03125 -9.890625 C 2.320312 -9.890625 2.570312 -9.785156 2.78125 -9.578125 C 2.988281 -9.378906 3.09375 -9.128906 3.09375 -8.828125 C 3.09375 -8.535156 2.988281 -8.285156 2.78125 -8.078125 C 2.582031 -7.867188 2.332031 -7.765625 2.03125 -7.765625 C 1.726562 -7.765625 1.472656 -7.863281 1.265625 -8.0625 C 1.054688 -8.269531 0.953125 -8.523438 0.953125 -8.828125 Z M 0.953125 -8.828125 "/>
</g>
<g id="glyph-2-13">
<path d="M 2.625 -3.125 C 2.625 -2.28125 2.734375 -1.65625 2.953125 -1.25 C 3.171875 -0.84375 3.523438 -0.640625 4.015625 -0.640625 C 4.191406 -0.640625 4.378906 -0.660156 4.578125 -0.703125 C 4.773438 -0.753906 4.941406 -0.820312 5.078125 -0.90625 L 5.078125 -5.890625 C 4.765625 -5.960938 4.410156 -6 4.015625 -6 C 3.546875 -6 3.195312 -5.765625 2.96875 -5.296875 C 2.738281 -4.828125 2.625 -4.101562 2.625 -3.125 Z M 7.09375 2.40625 L 7.796875 2.578125 L 7.796875 3.03125 L 4.109375 3.03125 L 4.109375 2.578125 L 5.078125 2.40625 L 5.078125 0.90625 C 5.078125 0.476562 5.097656 0.0390625 5.140625 -0.40625 C 4.691406 -0.0390625 4.125 0.140625 3.4375 0.140625 C 2.46875 0.140625 1.75 -0.144531 1.28125 -0.71875 C 0.8125 -1.289062 0.578125 -2.148438 0.578125 -3.296875 C 0.578125 -4.421875 0.835938 -5.269531 1.359375 -5.84375 C 1.890625 -6.425781 2.664062 -6.71875 3.6875 -6.71875 C 4.019531 -6.71875 4.664062 -6.664062 5.625 -6.5625 L 6.453125 -6.859375 L 7.09375 -6.859375 Z M 7.09375 2.40625 "/>
</g>
<g id="glyph-2-14">
<path d="M 1.09375 -5.828125 L 0.109375 -5.828125 L 0.109375 -6.296875 L 1.09375 -6.578125 L 1.09375 -7.28125 C 1.09375 -8.164062 1.316406 -8.847656 1.765625 -9.328125 C 2.222656 -9.804688 2.878906 -10.046875 3.734375 -10.046875 C 4.191406 -10.046875 4.578125 -10 4.890625 -9.90625 L 4.890625 -8.359375 L 4.4375 -8.359375 L 4.234375 -9.109375 C 4.128906 -9.222656 3.984375 -9.28125 3.796875 -9.28125 C 3.335938 -9.28125 3.109375 -8.6875 3.109375 -7.5 L 3.109375 -6.546875 L 4.4375 -6.546875 L 4.4375 -5.828125 L 3.109375 -5.828125 L 3.109375 -0.625 L 4.171875 -0.453125 L 4.171875 0 L 0.390625 0 L 0.390625 -0.453125 L 1.09375 -0.625 Z M 1.09375 -5.828125 "/>
</g>
<g id="glyph-2-15">
<path d="M 3.21875 0.203125 L 0.59375 -5.921875 L 0.140625 -6.09375 L 0.140625 -6.546875 L 3.484375 -6.546875 L 3.484375 -6.09375 L 2.703125 -5.90625 L 4.25 -2.28125 L 5.625 -5.921875 L 4.859375 -6.09375 L 4.859375 -6.546875 L 7 -6.546875 L 7 -6.09375 L 6.515625 -5.953125 L 3.9375 0.40625 C 3.632812 1.164062 3.375 1.71875 3.15625 2.0625 C 2.9375 2.40625 2.6875 2.660156 2.40625 2.828125 C 2.132812 2.992188 1.828125 3.078125 1.484375 3.078125 C 1.109375 3.078125 0.722656 3.035156 0.328125 2.953125 L 0.328125 1.265625 L 0.75 1.265625 L 1.046875 2.140625 C 1.179688 2.242188 1.351562 2.296875 1.5625 2.296875 C 1.738281 2.296875 1.894531 2.253906 2.03125 2.171875 C 2.164062 2.085938 2.289062 1.96875 2.40625 1.8125 C 2.53125 1.65625 2.644531 1.460938 2.75 1.234375 C 2.851562 1.003906 3.007812 0.660156 3.21875 0.203125 Z M 3.21875 0.203125 "/>
</g>
</g>
<clipPath id="clip-0">
<path clip-rule="nonzero" d="M 0 0.277344 L 958.992188 0.277344 L 958.992188 539.695312 L 0 539.695312 Z M 0 0.277344 "/>
</clipPath>
</defs>
<g clip-path="url(#clip-0)">
<path fill-rule="evenodd" fill="rgb(100%, 100%, 100%)" fill-opacity="1" d="M 0 0.277344 L 958.992188 0.277344 L 958.992188 539.695312 L 0 539.695312 Z M 0 0.277344 "/>
<path fill-rule="evenodd" fill="rgb(100%, 100%, 100%)" fill-opacity="1" d="M 0 0.277344 L 959.019531 0.277344 L 959.019531 539.722656 L 0 539.722656 Z M 0 0.277344 "/>
</g>
<path fill-rule="evenodd" fill="rgb(85.096741%, 93.331909%, 94.116211%)" fill-opacity="1" stroke-width="1.0488" stroke-linecap="butt" stroke-linejoin="round" stroke="rgb(26.274109%, 54.508972%, 52.548218%)" stroke-opacity="1" stroke-miterlimit="10" d="M 41.214357 339.051644 C 41.214357 340.099599 41.499807 341.151464 42.008144 342.058649 C 42.547762 342.965835 43.314177 343.728339 44.221362 344.240586 C 45.128548 344.776294 46.149131 345.061745 47.224458 345.061745 L 162.710683 345.034373 C 163.758638 345.034373 164.806593 344.748922 165.713778 344.240586 C 166.620963 343.700967 167.387378 342.934552 167.895715 342.027367 C 168.435334 341.120182 168.716874 340.099599 168.716874 339.024272 L 168.716874 268.553196 C 168.716874 267.505241 168.435334 266.457286 167.923087 265.550101 C 167.387378 264.642916 166.620963 263.876501 165.713778 263.368164 C 164.806593 262.828546 163.78601 262.543095 162.710683 262.543095 L 47.197086 262.543095 C 46.149131 262.543095 45.097265 262.828546 44.19008 263.340792 C 43.286805 263.876501 42.52039 264.642916 42.008144 265.550101 C 41.472435 266.457286 41.186985 267.477869 41.186985 268.553196 Z M 41.214357 339.051644 " transform="matrix(0.998969, 0, 0, -0.998969, -0.000000000000009159, 539.721697)"/>
<g fill="rgb(26.274109%, 54.508972%, 52.548218%)" fill-opacity="1">
<use xlink:href="#glyph-0-0" x="55.78544" y="218.858768"/>
</g>
<g fill="rgb(26.274109%, 54.508972%, 52.548218%)" fill-opacity="1">
<use xlink:href="#glyph-0-1" x="64.028506" y="218.858768"/>
</g>
<g fill="rgb(26.274109%, 54.508972%, 52.548218%)" fill-opacity="1">
<use xlink:href="#glyph-0-2" x="67.54845" y="218.858768"/>
</g>
<g fill="rgb(26.274109%, 54.508972%, 52.548218%)" fill-opacity="1">
<use xlink:href="#glyph-0-3" x="78.146678" y="218.858768"/>
</g>
<g fill="rgb(26.274109%, 54.508972%, 52.548218%)" fill-opacity="1">
<use xlink:href="#glyph-0-4" x="83.791387" y="218.858768"/>
</g>
<g fill="rgb(26.274109%, 54.508972%, 52.548218%)" fill-opacity="1">
<use xlink:href="#glyph-0-5" x="88.040918" y="218.858768"/>
</g>
<g fill="rgb(26.274109%, 54.508972%, 52.548218%)" fill-opacity="1">
<use xlink:href="#glyph-0-3" x="92.968838" y="218.858768"/>
<use xlink:href="#glyph-0-6" x="98.639147" y="218.858768"/>
</g>
<g fill="rgb(26.274109%, 54.508972%, 52.548218%)" fill-opacity="1">
<use xlink:href="#glyph-0-1" x="104.283855" y="218.858768"/>
</g>
<g fill="rgb(26.274109%, 54.508972%, 52.548218%)" fill-opacity="1">
<use xlink:href="#glyph-0-3" x="107.803799" y="218.858768"/>
<use xlink:href="#glyph-0-5" x="113.474107" y="218.858768"/>
</g>
<g fill="rgb(26.274109%, 54.508972%, 52.548218%)" fill-opacity="1">
<use xlink:href="#glyph-0-7" x="118.402027" y="218.858768"/>
</g>
<g fill="rgb(26.274109%, 54.508972%, 52.548218%)" fill-opacity="1">
<use xlink:href="#glyph-0-8" x="121.576376" y="218.858768"/>
</g>
<g fill="rgb(26.274109%, 54.508972%, 52.548218%)" fill-opacity="1">
<use xlink:href="#glyph-0-9" x="128.667461" y="218.858768"/>
</g>
<g fill="rgb(26.274109%, 54.508972%, 52.548218%)" fill-opacity="1">
<use xlink:href="#glyph-0-10" x="135.016158" y="218.858768"/>
</g>
<g fill="rgb(26.274109%, 54.508972%, 52.548218%)" fill-opacity="1">
<use xlink:href="#glyph-0-9" x="139.26569" y="218.858768"/>
</g>
<g fill="rgb(18.823242%, 22.744751%, 29.411316%)" fill-opacity="1">
<use xlink:href="#glyph-1-0" x="57.285892" y="239.048936"/>
</g>
<g fill="rgb(18.823242%, 22.744751%, 29.411316%)" fill-opacity="1">
<use xlink:href="#glyph-1-1" x="61.770237" y="239.048936"/>
<use xlink:href="#glyph-1-2" x="66.272591" y="239.048936"/>
</g>
<g fill="rgb(18.823242%, 22.744751%, 29.411316%)" fill-opacity="1">
<use xlink:href="#glyph-1-3" x="69.784427" y="239.048936"/>
</g>
<g fill="rgb(18.823242%, 22.744751%, 29.411316%)" fill-opacity="1">
<use xlink:href="#glyph-1-4" x="73.755504" y="239.048936"/>
<use xlink:href="#glyph-1-5" x="76.754072" y="239.048936"/>
<use xlink:href="#glyph-1-6" x="81.256426" y="239.048936"/>
<use xlink:href="#glyph-1-7" x="85.245512" y="239.048936"/>
<use xlink:href="#glyph-1-8" x="87.739817" y="239.048936"/>
<use xlink:href="#glyph-1-0" x="90.234121" y="239.048936"/>
<use xlink:href="#glyph-1-9" x="94.736476" y="239.048936"/>
<use xlink:href="#glyph-1-2" x="99.23883" y="239.048936"/>
</g>
<path fill-rule="evenodd" fill="rgb(86.665344%, 93.331909%, 86.273193%)" fill-opacity="1" stroke-width="1.0488" stroke-linecap="butt" stroke-linejoin="round" stroke="rgb(26.274109%, 54.508972%, 52.548218%)" stroke-opacity="1" stroke-miterlimit="10" d="M 209.962513 339.051644 C 209.962513 340.099599 210.244053 341.151464 210.7563 342.058649 C 211.295918 342.965835 212.058423 343.728339 212.965608 344.240586 C 213.872793 344.776294 214.893376 345.061745 215.972614 345.061745 L 331.454929 345.034373 C 332.502884 345.034373 333.554749 344.748922 334.461934 344.240586 C 335.365209 343.700967 336.131624 342.934552 336.643871 342.027367 C 337.179579 341.120182 337.46503 340.099599 337.46503 339.024272 L 337.46503 268.553196 C 337.46503 267.505241 337.179579 266.457286 336.671243 265.550101 C 336.131624 264.642916 335.365209 263.876501 334.461934 263.368164 C 333.554749 262.828546 332.530256 262.543095 331.454929 262.543095 L 215.941332 262.543095 C 214.893376 262.543095 213.845421 262.828546 212.938236 263.340792 C 212.031051 263.876501 211.264636 264.642916 210.7563 265.550101 C 210.216681 266.457286 209.935141 267.477869 209.935141 268.553196 Z M 209.962513 339.051644 " transform="matrix(0.998969, 0, 0, -0.998969, -0.000000000000009159, 539.721697)"/>
<g fill="rgb(26.274109%, 54.508972%, 52.548218%)" fill-opacity="1">
<use xlink:href="#glyph-0-11" x="224.357505" y="218.858768"/>
</g>
<g fill="rgb(26.274109%, 54.508972%, 52.548218%)" fill-opacity="1">
<use xlink:href="#glyph-0-12" x="232.830968" y="218.858768"/>
</g>
<g fill="rgb(26.274109%, 54.508972%, 52.548218%)" fill-opacity="1">
<use xlink:href="#glyph-0-1" x="239.179665" y="218.858768"/>
<use xlink:href="#glyph-0-8" x="242.725208" y="218.858768"/>
</g>
<g fill="rgb(26.274109%, 54.508972%, 52.548218%)" fill-opacity="1">
<use xlink:href="#glyph-0-3" x="249.777894" y="218.858768"/>
<use xlink:href="#glyph-0-13" x="255.448202" y="218.858768"/>
</g>
<g fill="rgb(26.274109%, 54.508972%, 52.548218%)" fill-opacity="1">
<use xlink:href="#glyph-0-14" x="262.500888" y="218.858768"/>
</g>
<g fill="rgb(26.274109%, 54.508972%, 52.548218%)" fill-opacity="1">
<use xlink:href="#glyph-0-3" x="268.145597" y="218.858768"/>
</g>
<g fill="rgb(26.274109%, 54.508972%, 52.548218%)" fill-opacity="1">
<use xlink:href="#glyph-0-7" x="273.790305" y="218.858768"/>
<use xlink:href="#glyph-0-15" x="276.990254" y="218.858768"/>
</g>
<g fill="rgb(26.274109%, 54.508972%, 52.548218%)" fill-opacity="1">
<use xlink:href="#glyph-0-16" x="280.510197" y="218.858768"/>
</g>
<g fill="rgb(26.274109%, 54.508972%, 52.548218%)" fill-opacity="1">
<use xlink:href="#glyph-0-17" x="286.884494" y="218.858768"/>
</g>
<g fill="rgb(18.823242%, 22.744751%, 29.411316%)" fill-opacity="1">
<use xlink:href="#glyph-1-10" x="225.857957" y="239.048936"/>
</g>
<g fill="rgb(18.823242%, 22.744751%, 29.411316%)" fill-opacity="1">
<use xlink:href="#glyph-1-4" x="230.342302" y="239.048936"/>
<use xlink:href="#glyph-1-0" x="233.34087" y="239.048936"/>
<use xlink:href="#glyph-1-5" x="237.843224" y="239.048936"/>
</g>
<g fill="rgb(18.823242%, 22.744751%, 29.411316%)" fill-opacity="1">
<use xlink:href="#glyph-1-3" x="242.327569" y="239.048936"/>
<use xlink:href="#glyph-1-9" x="246.316655" y="239.048936"/>
<use xlink:href="#glyph-1-6" x="250.819009" y="239.048936"/>
<use xlink:href="#glyph-1-9" x="254.808095" y="239.048936"/>
<use xlink:href="#glyph-1-11" x="259.31045" y="239.048936"/>
<use xlink:href="#glyph-1-3" x="263.299536" y="239.048936"/>
</g>
<path fill-rule="evenodd" fill="rgb(95.684814%, 94.116211%, 78.822327%)" fill-opacity="1" stroke-width="1.0488" stroke-linecap="butt" stroke-linejoin="round" stroke="rgb(71.763611%, 49.803162%, 16.862488%)" stroke-opacity="1" stroke-miterlimit="10" d="M 378.710669 361.559218 C 378.710669 362.607174 378.992209 363.655129 379.500545 364.562314 C 380.040164 365.469499 380.806579 366.235914 381.713764 366.74425 C 382.620949 367.283869 383.668904 367.56932 384.71686 367.56932 L 552.698601 367.541948 C 553.746556 367.541948 554.798421 367.256497 555.705606 366.74425 C 556.612791 366.208542 557.375296 365.442127 557.887543 364.534942 C 558.423251 363.627757 558.708702 362.579802 558.708702 361.531846 L 558.708702 246.045622 C 558.708702 244.997666 558.423251 243.949711 557.914915 243.042526 C 557.375296 242.135341 556.612791 241.368926 555.705606 240.86059 C 554.798421 240.320971 553.746556 240.039431 552.698601 240.039431 L 384.689488 240.039431 C 383.641532 240.039431 382.593577 240.320971 381.686392 240.829307 C 380.779207 241.368926 380.012792 242.135341 379.500545 243.042526 C 378.964837 243.949711 378.679386 244.997666 378.679386 246.045622 Z M 378.710669 361.559218 " transform="matrix(0.998969, 0, 0, -0.998969, -0.000000000000009159, 539.721697)"/>
<g fill="rgb(71.763611%, 49.803162%, 16.862488%)" fill-opacity="1">
<use xlink:href="#glyph-0-0" x="392.92957" y="196.374967"/>
</g>
<g fill="rgb(71.763611%, 49.803162%, 16.862488%)" fill-opacity="1">
<use xlink:href="#glyph-0-3" x="400.238252" y="196.374967"/>
</g>
<g fill="rgb(71.763611%, 49.803162%, 16.862488%)" fill-opacity="1">
<use xlink:href="#glyph-0-2" x="405.88296" y="196.374967"/>
</g>
<g fill="rgb(71.763611%, 49.803162%, 16.862488%)" fill-opacity="1">
<use xlink:href="#glyph-0-18" x="416.481189" y="196.374967"/>
</g>
<g fill="rgb(71.763611%, 49.803162%, 16.862488%)" fill-opacity="1">
<use xlink:href="#glyph-0-16" x="423.533875" y="196.374967"/>
</g>
<g fill="rgb(71.763611%, 49.803162%, 16.862488%)" fill-opacity="1">
<use xlink:href="#glyph-0-6" x="429.908172" y="196.374967"/>
</g>
<g fill="rgb(71.763611%, 49.803162%, 16.862488%)" fill-opacity="1">
<use xlink:href="#glyph-0-9" x="435.55288" y="196.374967"/>
</g>
<g fill="rgb(71.763611%, 49.803162%, 16.862488%)" fill-opacity="1">
<use xlink:href="#glyph-0-15" x="441.901578" y="196.374967"/>
<use xlink:href="#glyph-0-7" x="445.44712" y="196.374967"/>
</g>
<g fill="rgb(71.763611%, 49.803162%, 16.862488%)" fill-opacity="1">
<use xlink:href="#glyph-0-10" x="448.621469" y="196.374967"/>
</g>
<g fill="rgb(71.763611%, 49.803162%, 16.862488%)" fill-opacity="1">
<use xlink:href="#glyph-0-16" x="452.845401" y="196.374967"/>
</g>
<g fill="rgb(71.763611%, 49.803162%, 16.862488%)" fill-opacity="1">
<use xlink:href="#glyph-0-16" x="459.219698" y="196.374967"/>
</g>
<g fill="rgb(71.763611%, 49.803162%, 16.862488%)" fill-opacity="1">
<use xlink:href="#glyph-0-15" x="465.568395" y="196.374967"/>
<use xlink:href="#glyph-0-5" x="469.113938" y="196.374967"/>
</g>
<g fill="rgb(18.823242%, 22.744751%, 29.411316%)" fill-opacity="1">
<use xlink:href="#glyph-1-7" x="394.431021" y="216.622076"/>
<use xlink:href="#glyph-1-4" x="396.925325" y="216.622076"/>
</g>
<g fill="rgb(18.823242%, 22.744751%, 29.411316%)" fill-opacity="1">
<use xlink:href="#glyph-1-3" x="399.905884" y="216.622076"/>
<use xlink:href="#glyph-1-9" x="403.89497" y="216.622076"/>
<use xlink:href="#glyph-1-12" x="408.397324" y="216.622076"/>
<use xlink:href="#glyph-1-13" x="412.899678" y="216.622076"/>
</g>
<g fill="rgb(18.823242%, 22.744751%, 29.411316%)" fill-opacity="1">
<use xlink:href="#glyph-1-14" x="415.141851" y="216.622076"/>
<use xlink:href="#glyph-1-13" x="418.140419" y="216.622076"/>
</g>
<g fill="rgb(18.823242%, 22.744751%, 29.411316%)" fill-opacity="1">
<use xlink:href="#glyph-1-6" x="420.382591" y="216.622076"/>
<use xlink:href="#glyph-1-9" x="424.371677" y="216.622076"/>
<use xlink:href="#glyph-1-0" x="428.874032" y="216.622076"/>
<use xlink:href="#glyph-1-15" x="433.376386" y="216.622076"/>
<use xlink:href="#glyph-1-6" x="440.373045" y="216.622076"/>
<use xlink:href="#glyph-1-16" x="444.362131" y="216.622076"/>
<use xlink:href="#glyph-1-17" x="446.856435" y="216.622076"/>
</g>
<g fill="rgb(18.823242%, 22.744751%, 29.411316%)" fill-opacity="1">
<use xlink:href="#glyph-1-11" x="394.431021" y="227.438915"/>
</g>
<g fill="rgb(18.823242%, 22.744751%, 29.411316%)" fill-opacity="1">
<use xlink:href="#glyph-1-0" x="398.402097" y="227.438915"/>
<use xlink:href="#glyph-1-4" x="402.904452" y="227.438915"/>
<use xlink:href="#glyph-1-4" x="405.90302" y="227.438915"/>
<use xlink:href="#glyph-1-3" x="408.901588" y="227.438915"/>
<use xlink:href="#glyph-1-16" x="412.890674" y="227.438915"/>
<use xlink:href="#glyph-1-6" x="415.384978" y="227.438915"/>
<use xlink:href="#glyph-1-7" x="419.374064" y="227.438915"/>
<use xlink:href="#glyph-1-8" x="421.868368" y="227.438915"/>
<use xlink:href="#glyph-1-0" x="424.362673" y="227.438915"/>
<use xlink:href="#glyph-1-9" x="428.865027" y="227.438915"/>
<use xlink:href="#glyph-1-13" x="433.367381" y="227.438915"/>
</g>
<g fill="rgb(18.823242%, 22.744751%, 29.411316%)" fill-opacity="1">
<use xlink:href="#glyph-1-14" x="435.609554" y="227.438915"/>
<use xlink:href="#glyph-1-13" x="438.608122" y="227.438915"/>
</g>
<g fill="rgb(18.823242%, 22.744751%, 29.411316%)" fill-opacity="1">
<use xlink:href="#glyph-1-18" x="440.850294" y="227.438915"/>
<use xlink:href="#glyph-1-0" x="443.848863" y="227.438915"/>
<use xlink:href="#glyph-1-4" x="448.351217" y="227.438915"/>
</g>
<g fill="rgb(18.823242%, 22.744751%, 29.411316%)" fill-opacity="1">
<use xlink:href="#glyph-1-3" x="451.331776" y="227.438915"/>
<use xlink:href="#glyph-1-11" x="455.320862" y="227.438915"/>
<use xlink:href="#glyph-1-6" x="459.309948" y="227.438915"/>
<use xlink:href="#glyph-1-2" x="463.299034" y="227.438915"/>
</g>
<g fill="rgb(18.823242%, 22.744751%, 29.411316%)" fill-opacity="1">
<use xlink:href="#glyph-1-7" x="466.81087" y="227.438915"/>
</g>
<path fill-rule="evenodd" fill="rgb(90.194702%, 87.841797%, 94.900513%)" fill-opacity="1" stroke-width="1.0488" stroke-linecap="butt" stroke-linejoin="round" stroke="rgb(47.058105%, 38.822937%, 62.35199%)" stroke-opacity="1" stroke-miterlimit="10" d="M 599.981713 339.051644 C 599.981713 340.099599 600.263253 341.151464 600.7755 342.058649 C 601.311208 342.965835 602.077623 343.728339 602.984808 344.240586 C 603.891993 344.776294 604.912576 345.061745 605.991814 345.061745 L 721.474129 345.034373 C 722.522084 345.034373 723.573949 344.748922 724.477224 344.240586 C 725.384409 343.700967 726.150824 342.934552 726.659161 342.027367 C 727.198779 341.120182 727.48423 340.099599 727.48423 339.024272 L 727.48423 268.553196 C 727.48423 267.505241 727.198779 266.457286 726.690443 265.550101 C 726.150824 264.642916 725.384409 263.876501 724.477224 263.368164 C 723.573949 262.828546 722.549456 262.543095 721.474129 262.543095 L 605.960532 262.543095 C 604.912576 262.543095 603.864621 262.828546 602.957436 263.340792 C 602.050251 263.876501 601.283836 264.642916 600.7755 265.550101 C 600.235881 266.457286 599.954341 267.477869 599.954341 268.553196 Z M 599.981713 339.051644 " transform="matrix(0.998969, 0, 0, -0.998969, -0.000000000000009159, 539.721697)"/>
<g fill="rgb(47.058105%, 38.822937%, 62.35199%)" fill-opacity="1">
<use xlink:href="#glyph-0-19" x="613.946521" y="218.858768"/>
</g>
<g fill="rgb(47.058105%, 38.822937%, 62.35199%)" fill-opacity="1">
<use xlink:href="#glyph-0-19" x="622.419984" y="218.858768"/>
</g>
<g fill="rgb(47.058105%, 38.822937%, 62.35199%)" fill-opacity="1">
<use xlink:href="#glyph-0-20" x="630.893447" y="218.858768"/>
</g>
<g fill="rgb(47.058105%, 38.822937%, 62.35199%)" fill-opacity="1">
<use xlink:href="#glyph-0-7" x="642.912453" y="218.858768"/>
</g>
<g fill="rgb(47.058105%, 38.822937%, 62.35199%)" fill-opacity="1">
<use xlink:href="#glyph-0-14" x="646.086802" y="218.858768"/>
</g>
<g fill="rgb(47.058105%, 38.822937%, 62.35199%)" fill-opacity="1">
<use xlink:href="#glyph-0-6" x="651.73151" y="218.858768"/>
</g>
<g fill="rgb(47.058105%, 38.822937%, 62.35199%)" fill-opacity="1">
<use xlink:href="#glyph-0-1" x="657.376219" y="218.858768"/>
<use xlink:href="#glyph-0-10" x="660.921762" y="218.858768"/>
</g>
<g fill="rgb(47.058105%, 38.822937%, 62.35199%)" fill-opacity="1">
<use xlink:href="#glyph-0-1" x="665.145693" y="218.858768"/>
<use xlink:href="#glyph-0-14" x="668.691236" y="218.858768"/>
</g>
<g fill="rgb(18.823242%, 22.744751%, 29.411316%)" fill-opacity="1">
<use xlink:href="#glyph-1-11" x="615.446973" y="239.048936"/>
</g>
<g fill="rgb(18.823242%, 22.744751%, 29.411316%)" fill-opacity="1">
<use xlink:href="#glyph-1-19" x="619.41805" y="239.048936"/>
<use xlink:href="#glyph-1-3" x="623.920404" y="239.048936"/>
<use xlink:href="#glyph-1-11" x="627.90949" y="239.048936"/>
<use xlink:href="#glyph-1-20" x="631.898576" y="239.048936"/>
<use xlink:href="#glyph-1-13" x="636.400931" y="239.048936"/>
</g>
<g fill="rgb(18.823242%, 22.744751%, 29.411316%)" fill-opacity="1">
<use xlink:href="#glyph-1-6" x="638.643103" y="239.048936"/>
<use xlink:href="#glyph-1-9" x="642.632189" y="239.048936"/>
<use xlink:href="#glyph-1-12" x="647.134544" y="239.048936"/>
<use xlink:href="#glyph-1-13" x="651.636898" y="239.048936"/>
</g>
<g fill="rgb(18.823242%, 22.744751%, 29.411316%)" fill-opacity="1">
<use xlink:href="#glyph-1-4" x="653.87907" y="239.048936"/>
<use xlink:href="#glyph-1-3" x="656.877638" y="239.048936"/>
<use xlink:href="#glyph-1-5" x="660.866724" y="239.048936"/>
</g>
<g fill="rgb(18.823242%, 22.744751%, 29.411316%)" fill-opacity="1">
<use xlink:href="#glyph-1-8" x="665.351069" y="239.048936"/>
</g>
<g fill="rgb(18.823242%, 22.744751%, 29.411316%)" fill-opacity="1">
<use xlink:href="#glyph-1-2" x="667.863383" y="239.048936"/>
</g>
<g fill="rgb(18.823242%, 22.744751%, 29.411316%)" fill-opacity="1">
<use xlink:href="#glyph-1-3" x="671.348206" y="239.048936"/>
</g>
<path fill-rule="evenodd" fill="rgb(95.292664%, 88.626099%, 87.057495%)" fill-opacity="1" stroke-width="1.0488" stroke-linecap="butt" stroke-linejoin="round" stroke="rgb(72.155762%, 39.99939%, 34.901428%)" stroke-opacity="1" stroke-miterlimit="10" d="M 768.729869 339.051644 C 768.729869 340.099599 769.011409 341.151464 769.519745 342.058649 C 770.059364 342.965835 770.825779 343.728339 771.732964 344.240586 C 772.640149 344.776294 773.660732 345.061745 774.73606 345.061745 L 890.218374 345.034373 C 891.27024 345.034373 892.318195 344.748922 893.22538 344.240586 C 894.132565 343.700967 894.89898 342.934552 895.407316 342.027367 C 895.946935 341.120182 896.228475 340.099599 896.228475 339.024272 L 896.228475 268.553196 C 896.228475 267.505241 895.946935 266.457286 895.434688 265.550101 C 894.89898 264.642916 894.132565 263.876501 893.22538 263.368164 C 892.318195 262.828546 891.297612 262.543095 890.218374 262.543095 L 774.708688 262.543095 C 773.660732 262.543095 772.612777 262.828546 771.705592 263.340792 C 770.798407 263.876501 770.031992 264.642916 769.519745 265.550101 C 768.984037 266.457286 768.698586 267.477869 768.698586 268.553196 Z M 768.729869 339.051644 " transform="matrix(0.998969, 0, 0, -0.998969, -0.000000000000009159, 539.721697)"/>
<g fill="rgb(72.155762%, 39.99939%, 34.901428%)" fill-opacity="1">
<use xlink:href="#glyph-0-21" x="782.518586" y="218.858768"/>
</g>
<g fill="rgb(72.155762%, 39.99939%, 34.901428%)" fill-opacity="1">
<use xlink:href="#glyph-0-1" x="790.288061" y="218.858768"/>
</g>
<g fill="rgb(72.155762%, 39.99939%, 34.901428%)" fill-opacity="1">
<use xlink:href="#glyph-0-13" x="793.808004" y="218.858768"/>
</g>
<g fill="rgb(72.155762%, 39.99939%, 34.901428%)" fill-opacity="1">
<use xlink:href="#glyph-0-9" x="800.899089" y="218.858768"/>
</g>
<g fill="rgb(72.155762%, 39.99939%, 34.901428%)" fill-opacity="1">
<use xlink:href="#glyph-0-15" x="807.247786" y="218.858768"/>
<use xlink:href="#glyph-0-7" x="810.793329" y="218.858768"/>
</g>
<g fill="rgb(72.155762%, 39.99939%, 34.901428%)" fill-opacity="1">
<use xlink:href="#glyph-0-9" x="813.967678" y="218.858768"/>
</g>
<g fill="rgb(72.155762%, 39.99939%, 34.901428%)" fill-opacity="1">
<use xlink:href="#glyph-0-13" x="820.316375" y="218.858768"/>
</g>
<g fill="rgb(72.155762%, 39.99939%, 34.901428%)" fill-opacity="1">
<use xlink:href="#glyph-0-5" x="827.40746" y="218.858768"/>
</g>
<g fill="rgb(72.155762%, 39.99939%, 34.901428%)" fill-opacity="1">
<use xlink:href="#glyph-0-22" x="832.37378" y="218.858768"/>
</g>
<g fill="rgb(72.155762%, 39.99939%, 34.901428%)" fill-opacity="1">
<use xlink:href="#glyph-0-3" x="841.564031" y="218.858768"/>
</g>
<g fill="rgb(72.155762%, 39.99939%, 34.901428%)" fill-opacity="1">
<use xlink:href="#glyph-0-6" x="847.20874" y="218.858768"/>
</g>
<g fill="rgb(18.823242%, 22.744751%, 29.411316%)" fill-opacity="1">
<use xlink:href="#glyph-1-3" x="784.019038" y="239.048936"/>
</g>
<g fill="rgb(18.823242%, 22.744751%, 29.411316%)" fill-opacity="1">
<use xlink:href="#glyph-1-5" x="787.990115" y="239.048936"/>
<use xlink:href="#glyph-1-8" x="792.492469" y="239.048936"/>
<use xlink:href="#glyph-1-12" x="794.986774" y="239.048936"/>
<use xlink:href="#glyph-1-3" x="799.489128" y="239.048936"/>
<use xlink:href="#glyph-1-9" x="803.478214" y="239.048936"/>
<use xlink:href="#glyph-1-11" x="807.980568" y="239.048936"/>
<use xlink:href="#glyph-1-3" x="811.969654" y="239.048936"/>
<use xlink:href="#glyph-1-21" x="815.95874" y="239.048936"/>
</g>
<g fill="rgb(18.823242%, 22.744751%, 29.411316%)" fill-opacity="1">
<use xlink:href="#glyph-1-1" x="818.939299" y="239.048936"/>
<use xlink:href="#glyph-1-6" x="823.441653" y="239.048936"/>
<use xlink:href="#glyph-1-11" x="827.430739" y="239.048936"/>
<use xlink:href="#glyph-1-20" x="831.419825" y="239.048936"/>
<use xlink:href="#glyph-1-3" x="835.92218" y="239.048936"/>
<use xlink:href="#glyph-1-12" x="839.911266" y="239.048936"/>
</g>
<path fill="none" stroke-width="1.50234" stroke-linecap="butt" stroke-linejoin="round" stroke="rgb(26.274109%, 54.508972%, 52.548218%)" stroke-opacity="1" stroke-miterlimit="10" d="M 173.366197 303.761362 L 209.989885 303.761362 " transform="matrix(0.998969, 0, 0, -0.998969, -0.000000000000009159, 539.721697)"/>
<path fill-rule="evenodd" fill="rgb(26.274109%, 54.508972%, 52.548218%)" fill-opacity="1" d="M 168.570312 236.273438 L 172.394531 233.808594 L 173.527344 234.914062 L 172.707031 235.539062 L 173.527344 235.539062 L 173.527344 237.039062 L 172.707031 237.039062 L 173.527344 237.632812 L 172.394531 238.765625 Z M 168.570312 236.273438 "/>
<path fill="none" stroke-width="1.50234" stroke-linecap="butt" stroke-linejoin="round" stroke="rgb(26.274109%, 54.508972%, 52.548218%)" stroke-opacity="1" stroke-miterlimit="10" d="M 342.083071 303.761362 L 378.738041 303.761362 " transform="matrix(0.998969, 0, 0, -0.998969, -0.000000000000009159, 539.721697)"/>
<path fill-rule="evenodd" fill="rgb(26.274109%, 54.508972%, 52.548218%)" fill-opacity="1" d="M 337.117188 236.273438 L 340.9375 233.808594 L 342.070312 234.914062 L 341.25 235.539062 L 342.070312 235.539062 L 342.070312 237.039062 L 341.25 237.039062 L 342.070312 237.632812 L 340.9375 238.765625 Z M 337.117188 236.273438 "/>
<path fill="none" stroke-width="1.50234" stroke-linecap="butt" stroke-linejoin="round" stroke="rgb(71.763611%, 49.803162%, 16.862488%)" stroke-opacity="1" stroke-miterlimit="10" d="M 563.330653 303.761362 L 600.009085 303.761362 " transform="matrix(0.998969, 0, 0, -0.998969, -0.000000000000009159, 539.721697)"/>
<path fill-rule="evenodd" fill="rgb(71.763611%, 49.803162%, 16.862488%)" fill-opacity="1" d="M 558.132812 236.273438 L 561.957031 233.808594 L 563.089844 234.914062 L 562.265625 235.539062 L 563.089844 235.539062 L 563.089844 237.039062 L 562.265625 237.039062 L 563.089844 237.632812 L 561.957031 238.765625 Z M 558.132812 236.273438 "/>
<path fill="none" stroke-width="1.50234" stroke-linecap="butt" stroke-linejoin="round" stroke="rgb(47.058105%, 38.822937%, 62.35199%)" stroke-opacity="1" stroke-miterlimit="10" d="M 732.102271 303.761362 L 768.757241 303.761362 " transform="matrix(0.998969, 0, 0, -0.998969, -0.000000000000009159, 539.721697)"/>
<path fill-rule="evenodd" fill="rgb(47.058105%, 38.822937%, 62.35199%)" fill-opacity="1" d="M 726.734375 236.273438 L 730.554688 233.808594 L 731.6875 234.914062 L 730.867188 235.539062 L 731.6875 235.539062 L 731.6875 237.039062 L 730.867188 237.039062 L 731.6875 237.632812 L 730.554688 238.765625 Z M 726.734375 236.273438 "/>
<path fill="none" stroke-width="1.50234" stroke-linecap="butt" stroke-linejoin="round" stroke="rgb(47.058105%, 38.822937%, 62.35199%)" stroke-opacity="1" stroke-dasharray="6.00935 4.50701" stroke-miterlimit="10" d="M 722.862278 303.761362 L 209.989885 303.761362 " transform="matrix(0.998969, 0, 0, -0.998969, -0.000000000000009159, 539.721697)"/>
<path fill-rule="evenodd" fill="rgb(47.058105%, 38.822937%, 62.35199%)" fill-opacity="1" d="M 726.734375 236.273438 L 722.910156 238.765625 L 721.777344 237.632812 L 722.597656 237.011719 L 721.777344 237.011719 L 721.777344 235.507812 L 722.597656 235.507812 L 721.777344 234.914062 L 722.910156 233.808594 Z M 726.734375 236.273438 "/>
<g fill="rgb(14.117432%, 19.607544%, 29.019165%)" fill-opacity="1">
<use xlink:href="#glyph-2-0" x="179.360933" y="130.452987"/>
</g>
<g fill="rgb(14.117432%, 19.607544%, 29.019165%)" fill-opacity="1">
<use xlink:href="#glyph-2-1" x="186.468525" y="130.452987"/>
<use xlink:href="#glyph-2-2" x="194.403909" y="130.452987"/>
<use xlink:href="#glyph-2-3" x="199.955824" y="130.452987"/>
</g>
<g fill="rgb(14.117432%, 19.607544%, 29.019165%)" fill-opacity="1">
<use xlink:href="#glyph-2-4" x="206.264169" y="130.452987"/>
<use xlink:href="#glyph-2-5" x="212.586786" y="130.452987"/>
<use xlink:href="#glyph-2-3" x="219.722923" y="130.452987"/>
</g>
<g fill="rgb(14.117432%, 19.607544%, 29.019165%)" fill-opacity="1">
<use xlink:href="#glyph-2-6" x="226.031268" y="130.452987"/>
<use xlink:href="#glyph-2-6" x="229.599336" y="130.452987"/>
<use xlink:href="#glyph-2-7" x="233.167405" y="130.452987"/>
</g>
<g fill="rgb(14.117432%, 19.607544%, 29.019165%)" fill-opacity="1">
<use xlink:href="#glyph-2-6" x="247.425406" y="130.452987"/>
<use xlink:href="#glyph-2-6" x="250.993474" y="130.452987"/>
<use xlink:href="#glyph-2-3" x="254.561543" y="130.452987"/>
</g>
<g fill="rgb(14.117432%, 19.607544%, 29.019165%)" fill-opacity="1">
<use xlink:href="#glyph-2-8" x="260.869888" y="130.452987"/>
<use xlink:href="#glyph-2-3" x="268.006025" y="130.452987"/>
<use xlink:href="#glyph-2-9" x="274.328642" y="130.452987"/>
</g>
<g fill="rgb(14.117432%, 19.607544%, 29.019165%)" fill-opacity="1">
<use xlink:href="#glyph-2-10" x="280.636987" y="130.452987"/>
<use xlink:href="#glyph-2-11" x="288.572371" y="130.452987"/>
</g>
<g fill="rgb(14.117432%, 19.607544%, 29.019165%)" fill-opacity="1">
<use xlink:href="#glyph-2-3" x="293.296494" y="130.452987"/>
<use xlink:href="#glyph-2-6" x="299.619111" y="130.452987"/>
<use xlink:href="#glyph-2-6" x="303.187179" y="130.452987"/>
<use xlink:href="#glyph-2-7" x="306.755248" y="130.452987"/>
</g>
<g fill="rgb(14.117432%, 19.607544%, 29.019165%)" fill-opacity="1">
<use xlink:href="#glyph-2-6" x="321.013249" y="130.452987"/>
<use xlink:href="#glyph-2-6" x="324.581317" y="130.452987"/>
<use xlink:href="#glyph-2-9" x="328.149386" y="130.452987"/>
</g>
<g fill="rgb(14.117432%, 19.607544%, 29.019165%)" fill-opacity="1">
<use xlink:href="#glyph-2-4" x="334.457731" y="130.452987"/>
<use xlink:href="#glyph-2-12" x="340.780348" y="130.452987"/>
<use xlink:href="#glyph-2-11" x="344.733768" y="130.452987"/>
</g>
<g fill="rgb(14.117432%, 19.607544%, 29.019165%)" fill-opacity="1">
<use xlink:href="#glyph-2-12" x="349.45789" y="130.452987"/>
<use xlink:href="#glyph-2-13" x="353.41131" y="130.452987"/>
<use xlink:href="#glyph-2-10" x="361.346694" y="130.452987"/>
</g>
<g fill="rgb(14.117432%, 19.607544%, 29.019165%)" fill-opacity="1">
<use xlink:href="#glyph-2-3" x="369.267806" y="130.452987"/>
</g>
<g fill="rgb(14.117432%, 19.607544%, 29.019165%)" fill-opacity="1">
<use xlink:href="#glyph-2-6" x="375.576151" y="130.452987"/>
<use xlink:href="#glyph-2-6" x="379.14422" y="130.452987"/>
<use xlink:href="#glyph-2-7" x="382.712288" y="130.452987"/>
</g>
<g fill="rgb(14.117432%, 19.607544%, 29.019165%)" fill-opacity="1">
<use xlink:href="#glyph-2-6" x="396.97029" y="130.452987"/>
<use xlink:href="#glyph-2-6" x="400.538358" y="130.452987"/>
<use xlink:href="#glyph-2-5" x="404.106426" y="130.452987"/>
<use xlink:href="#glyph-2-3" x="411.242563" y="130.452987"/>
</g>
<g fill="rgb(14.117432%, 19.607544%, 29.019165%)" fill-opacity="1">
<use xlink:href="#glyph-2-4" x="417.550908" y="130.452987"/>
<use xlink:href="#glyph-2-12" x="423.873525" y="130.452987"/>
<use xlink:href="#glyph-2-14" x="427.826945" y="130.452987"/>
<use xlink:href="#glyph-2-15" x="432.579612" y="130.452987"/>
</g>
</svg>
